<svg width="640" height="507" viewBox="0 0 640 507" fill="none" xmlns="http://www.w3.org/2000/svg">
<g opacity="0.1">
<path d="M223.128 503.613C222.085 505.438 224.235 505.899 224.418 506.417C225.434 502.972 222.629 503.324 223.128 503.613Z" fill="#4FBBEA"/>
<path d="M241.112 470.649L241.206 471.897L243.854 466.187L241.112 470.649Z" fill="#4FBBEA"/>
<path d="M267.943 446.546C263.121 445.691 258.342 455.764 252.706 458.922L251.412 458.914L251.089 463.336C256.557 457.734 263.153 449.289 267.943 446.546Z" fill="#4FBBEA"/>
<path d="M287.434 440.582C285.648 440.166 289.854 436.757 283.732 443.172C284.173 443.016 284.324 443.021 284.589 442.928C285.185 442.367 285.984 441.677 287.434 440.582Z" fill="#4FBBEA"/>
<path d="M284.59 442.927C287.197 442.295 281.774 445.495 284.59 442.927V442.927Z" fill="#4FBBEA"/>
<path d="M297.47 430.628L294.453 435.014C295.765 435.073 299.287 432.255 298.384 433.914C301.831 429.9 300.537 429.892 297.47 430.628Z" fill="#4FBBEA"/>
<path d="M299.43 425.22L297.761 427.382C298.346 427.349 298.971 427.012 299.43 425.22Z" fill="#4FBBEA"/>
<path d="M294.276 431.991L297.761 427.382C296.857 427.352 296.057 426.355 296.082 429.373C295.793 428.136 295.625 429.767 294.276 431.991Z" fill="#4FBBEA"/>
<path d="M291.592 433.523C288.973 434.682 285.893 436.645 288.954 432.244C281.967 439.024 284.605 440.302 291.592 433.523Z" fill="#4FBBEA"/>
<path d="M266.998 442.05L263.488 443.64L261.796 446.858C262.655 445.216 267.893 442.897 266.998 442.05Z" fill="#4FBBEA"/>
<path d="M322.428 411.903C322.223 411.044 319.885 411.173 318.974 410.564L316.679 413.762C318.478 412.951 321.532 411.056 322.428 411.903Z" fill="#4FBBEA"/>
<path d="M318.974 410.564L322.422 405.851C318.54 408.913 318.233 410.011 318.974 410.564Z" fill="#4FBBEA"/>
<path d="M297.639 421.139L292.406 429.509L298.945 419.92L297.639 421.139Z" fill="#4FBBEA"/>
<path d="M338.725 398.453L337.4 402.007L340.063 396.059L338.725 398.453Z" fill="#4FBBEA"/>
<path d="M349.381 389.27C348.473 392.036 353.336 389.501 351.98 391.843C354.777 389.224 356.55 386.094 358.131 383.264C356.121 385.722 353.449 387.715 349.381 389.27Z" fill="#4FBBEA"/>
<path d="M361.005 378.755C360.018 380.035 359.123 381.574 358.131 383.264C359.251 381.937 360.227 380.485 361.005 378.755Z" fill="#4FBBEA"/>
<path d="M329.926 400.111C330.521 400.25 331.91 400.806 334.596 399.274L331.63 398.752C331.111 399.11 330.496 399.618 329.926 400.111Z" fill="#4FBBEA"/>
<path d="M331.523 398.731L331.63 398.752C333.492 397.278 334.784 396.297 335.329 395.871C334.854 396.214 333.72 397.081 331.523 398.731Z" fill="#4FBBEA"/>
<path d="M329.496 400.439C329.654 400.325 329.768 400.226 329.926 400.111C329.65 400.034 329.5 400.029 329.496 400.439Z" fill="#4FBBEA"/>
<path d="M309.957 413.288C311.711 410.106 316.098 404.538 309.951 407.236C309.061 410.054 312.589 408.515 309.957 413.288Z" fill="#4FBBEA"/>
<path d="M325.784 399.773L320.956 403.111C321.404 403.534 322.716 403.594 321.839 405.185L325.784 399.773Z" fill="#4FBBEA"/>
<path d="M327.555 397.341L325.784 399.773L327.542 398.568L327.555 397.341Z" fill="#4FBBEA"/>
<path d="M351.944 383.183C353.37 380.757 355.468 378.967 357.864 376.897C354.995 378.611 352.11 380.563 349.563 382.628C349.573 383.498 349.187 385.497 351.944 383.183Z" fill="#4FBBEA"/>
<path d="M341.88 390.527C341.976 390.377 342.116 390.211 342.255 390.045C341.884 390.118 341.619 390.212 341.88 390.527Z" fill="#4FBBEA"/>
<path d="M382.247 358.085L381.644 358.065L381.772 358.427L382.247 358.085Z" fill="#4FBBEA"/>
<path d="M348.872 382.64C346.661 383.829 345.773 385.249 345.073 386.778C346.413 385.372 347.877 384.039 349.563 382.628C349.523 382.235 349.45 382.028 348.872 382.64Z" fill="#4FBBEA"/>
<path d="M367.158 372.562C365.859 372.963 364.465 373.514 363.02 374.2C364.435 373.99 367.131 373.328 367.158 372.562Z" fill="#4FBBEA"/>
<path d="M343.292 390.027C343.222 390.11 343.126 390.261 343.056 390.344C343.968 390.254 343.718 390.11 343.292 390.027Z" fill="#4FBBEA"/>
<path d="M343.292 390.027C344.095 388.928 344.597 387.819 345.117 386.762C344.03 387.903 343.077 388.998 342.3 390.029C342.583 389.987 342.972 389.966 343.292 390.027Z" fill="#4FBBEA"/>
<path d="M381.821 339.899C382.597 341.953 378.31 347.661 372.477 349.142C368.809 353.932 375.586 357.647 381.643 358.065C381.269 357.149 380.818 356.436 384.773 351.893C382.516 352.11 372.976 357.289 375.876 352.713C381.45 347.132 381.317 349.565 384.936 348.285C380.927 347.899 390.754 339.183 387.343 336.839L382.615 342.005C382.149 341.529 383.63 339.259 381.821 339.899Z" fill="#4FBBEA"/>
<path d="M372.713 364.542L370.968 366.207C373.337 364.903 375.334 364.372 379.11 363.676C381.732 360.42 381.958 359.234 381.791 358.478L372.278 365.278L372.713 364.542Z" fill="#4FBBEA"/>
<path d="M362.507 372.751C362.703 369.655 366.669 365.284 362.522 365.354C357.086 369.78 359.703 370.018 357.003 373.476C365.569 365.964 355.168 376.57 362.32 372.643C360.788 374.349 359.279 375.698 357.884 376.948C359.654 375.915 361.354 374.964 363.082 374.236C362.994 374.267 362.887 374.247 362.799 374.278L362.755 374.294L362.737 374.242C362.215 374.31 361.983 374.217 362.469 374.046C362.495 373.978 362.565 373.895 362.653 373.864C362.525 373.502 362.503 373.16 362.507 372.751C365.37 371.157 363.272 372.947 362.59 373.828C362.627 373.931 362.638 374.102 362.674 374.206L362.719 374.19L370.95 366.156C368.89 367.35 366.589 369.27 362.507 372.751Z" fill="#4FBBEA"/>
<path d="M311.713 399.162C312.084 399.089 312.183 399.229 312.282 399.368C312.691 398.7 312.821 398.363 311.713 399.162Z" fill="#4FBBEA"/>
<path d="M316.123 397.311C315.663 398.114 315.694 399.326 313.46 400.873C311.264 401.824 312.829 399.932 312.301 399.42C311.405 400.959 308.919 404.459 313.448 402.1L313.864 401.312C317.871 399.021 324.023 397.602 323.606 398.389C321.398 397.482 319.656 397.051 316.123 397.311Z" fill="#4FBBEA"/>
<path d="M339.158 384.097L345.896 377.173L341.001 378.498L341.853 379.36C337.411 382.387 339.19 382.922 339.158 384.097Z" fill="#4FBBEA"/>
<path d="M383.712 358.439L384.072 361.28L386.537 355.053L383.712 358.439Z" fill="#4FBBEA"/>
<path d="M393.421 350.929L394.153 352.999L396.069 349.992L393.421 350.929Z" fill="#4FBBEA"/>
<path d="M133.617 386.617L131.331 388.299C132.476 387.603 133.178 387.063 133.617 386.617Z" fill="#4FBBEA"/>
<path d="M151.879 378.584L151.91 377.409C151.291 378.327 151.103 378.917 151.879 378.584Z" fill="#4FBBEA"/>
<path d="M480.364 208.293C475.891 207.721 470.566 206.287 471.813 208.407L473.792 210.21C476.312 208.911 478.433 208.452 480.364 208.293Z" fill="#4FBBEA"/>
<path d="M296.065 300.331C296.491 300.413 296.961 300.479 297.413 300.494C298.003 299.354 298.505 298.245 299.017 297.307C298.097 298.214 297.107 299.205 296.065 300.331Z" fill="#4FBBEA"/>
<path d="M297.252 310.563L291.854 311.308C293.104 311.332 294.865 311.116 297.252 310.563Z" fill="#4FBBEA"/>
<path d="M18.3448 431.358C16.771 431.682 15.2048 431.886 13.6277 431.921C18.5021 434.329 17.1564 432.069 18.3448 431.358Z" fill="#4FBBEA"/>
<path d="M494.942 275.604C498.267 274.195 500.688 272.757 502.657 271.303C498.607 272.911 494.747 273.229 494.942 275.604Z" fill="#4FBBEA"/>
<path d="M130.866 360.174C129.504 361.238 129.025 361.989 129.297 362.476C130.702 361.396 131.446 360.551 130.866 360.174Z" fill="#4FBBEA"/>
<path d="M510.64 264.812C510.022 265.031 509.466 265.285 508.867 265.556C507.081 267.526 505.215 269.409 502.657 271.303C505.666 270.122 508.863 268.351 510.64 264.812Z" fill="#4FBBEA"/>
<path d="M268.601 115.048C268.848 114.902 269.102 114.638 269.366 114.544C269.212 114.249 268.958 114.514 268.601 115.048Z" fill="#4FBBEA"/>
<path d="M355.704 33.3574C355.221 34.518 354.167 36.1714 353.201 37.7936C353.823 37.166 354.597 35.8444 355.704 33.3574Z" fill="#4FBBEA"/>
<path d="M433.979 322.959C433.799 323.431 431.933 324.615 433.979 322.959V322.959Z" fill="#4FBBEA"/>
<path d="M418.809 322.331C419.104 321.761 419.267 321.238 419.04 320.736C419.171 321.388 419.053 321.896 418.809 322.331Z" fill="#4FBBEA"/>
<path d="M522.233 235.681C522.321 235.65 522.347 235.582 522.435 235.551C521.586 235.677 521.718 235.63 522.233 235.681Z" fill="#4FBBEA"/>
<path d="M430.246 324.338C431.173 324.01 432.258 323.568 433.351 323.007C432.759 323.158 431.806 323.554 430.246 324.338Z" fill="#4FBBEA"/>
<path d="M431.219 324.984C430.435 325.436 429.81 325.773 429.229 326.095C429.173 326.639 429.581 326.669 431.219 324.984Z" fill="#4FBBEA"/>
<path d="M436.861 320.717C435.683 321.6 434.451 322.327 433.288 322.971C433.773 322.799 434.031 322.825 433.979 322.959C434.568 322.518 435.429 321.864 436.861 320.717Z" fill="#4FBBEA"/>
<path d="M128.057 281.771C128.233 281.709 128.392 281.595 128.586 281.584C129.958 279.003 129.188 279.916 128.057 281.771Z" fill="#4FBBEA"/>
<path d="M426.089 255.319C426.203 255.22 426.228 255.153 426.317 255.122C426.184 255.168 426.034 255.164 425.945 255.195L426.089 255.319Z" fill="#4FBBEA"/>
<path d="M418.17 260.448C420.746 256.219 422.938 255.676 425.927 255.143L420.605 249.924L418.17 260.448Z" fill="#4FBBEA"/>
<path d="M90.3642 406.693L97.1621 405.976C91.385 412.385 85.7184 413.633 92.4561 413.869C90.3459 406.641 115.223 402.845 113.113 395.617L117.664 395.288C116.517 395.694 116.505 396.222 115.357 396.628C124.404 396.512 118.916 389.14 129.14 385.756C132.806 384.75 135.615 384.688 133.642 386.55L140.524 381.438C142.8 380.574 142.754 381.987 140.477 382.851L151.863 377.135L151.91 377.409C153.104 375.59 156.142 372.245 157.684 370.709C161.048 370.392 156.495 372.12 157.608 372.599L163.353 368.064C166.745 368.668 162.148 372.798 157.594 374.525C166.52 378.701 162.192 370.395 176.865 368.638L171.136 372.237C176.717 374.395 180.824 370.846 188.74 370.2C186.572 369.686 172.407 370.215 178.645 365.389C180.848 365.017 183.558 364.117 186.732 361.015C187.787 363.436 191.209 361.177 195.748 358.989L196.787 362.347C201.387 359.206 200.271 357.738 202.606 354.933C208.289 352.748 210.491 354.762 212.68 356.317C221.787 352.862 204.841 355.074 215.123 349.748C223.041 347.703 227.652 344.034 235.704 338.159C241.344 336.978 235.597 340.525 237.876 340.65L241.405 336.026C242.534 335.568 242.536 336.557 242.506 337.033C245.958 334.298 241.467 333.675 247.196 330.077C247.36 325.769 261.867 329.717 267.686 322.303C269.903 322.392 267.642 324.706 268.681 325.677C277.878 318.407 276.733 319.801 283.713 312.442L291.81 311.324C285.491 311.289 291.087 305.351 296.065 300.331C293.712 299.999 291.662 299.676 290.368 299.669L299.136 293.714C300.493 293.758 299.987 295.276 299.017 297.307C299.569 296.762 300.059 296.182 300.453 295.751C304.313 295.433 303.368 298.096 301.655 300.972C300.262 300.825 298.806 300.641 297.413 300.494C295.905 303.53 294.585 306.675 295.88 308.371C296.351 307.738 297.378 306.851 298.611 306.124C298.212 306.963 298.042 307.606 298.443 307.755C298.906 307.94 299.584 306.769 300.799 305.291L304.471 307.95L304.382 306.294L317.727 303.028C325.068 295.425 330.587 286.603 344.068 278.807C341.687 283.026 345.068 283.459 346.177 286.734C340.993 285.134 335.835 293.012 328.313 295.615C332.26 294.277 332.033 296.162 331.263 297.075L343.039 288.252C343.796 290.952 346.6 288.913 350.424 288.491C345.754 284.555 358.721 280.783 363.392 276.86C364.437 278.411 363.86 280.711 357.251 283.224C365.907 283.828 364.015 273.147 372.392 273.385C370.814 274.118 369.858 274.223 369.614 275.357C372.68 272.235 382.275 269.597 380.742 272.002L379.164 272.735C389.94 268.806 411.297 259.271 411.161 254.255C411.495 254.777 411.873 260.057 411.585 261.207L424.734 238.859C424.5 243.249 434.389 249.588 426.397 255.209C429.103 254.718 432.464 254.111 437.299 250.654C435.369 250.813 430.931 246.97 433.149 245.661C441.205 247.235 438.515 246.091 447.852 246.513C444.947 246.725 445.587 239.689 449.772 238.325C449.465 239.423 452.281 244.014 451.019 245.218L459.072 235.558C456.897 237.55 460.432 240.665 463.321 241.389C461.859 240.626 472.192 238.251 474.708 236.662L469.881 236.914C481.763 233.584 478.366 224.541 490.12 220.848C489.128 222.538 489.232 229.428 495.35 228.195C496.999 224.293 502.429 209.741 512.185 204.194L514.75 205.266L522.171 200.836C518.534 206.837 507.709 220.737 501.495 226.894C506.333 226.812 503.4 228.49 509.907 226.246C512.743 227.105 507.155 229.839 505.276 230.562C510.472 229.248 515.624 227.949 520.812 226.754C518.976 223.387 531.358 219.646 529.91 216.957C524.686 219.737 519.598 222.759 514.411 225.642C512.566 222.395 520.778 212.621 532.005 210.104C535.202 210.719 531.851 216.969 532.449 218.096C533.458 216.459 542.102 212.818 543.359 213.422L539.255 216.561C545.703 216.259 547.839 209.101 556.133 210.648C557.964 210.35 561.667 211.834 563.582 211.913L551.398 188.982C550.746 189.387 550.397 189.802 550.749 190.376C551.546 190.385 552.38 190.497 553.13 190.93L562.906 209.3C558.549 204.846 555.579 195.186 557.271 191.968C557.378 191.989 557.528 191.994 558.139 191.894L598.502 186.112L564.719 204.176C562.71 205.236 552.746 211.323 549.562 211.867C544.448 212.571 549.292 201.136 544.92 201.693C545.426 202.562 544.562 205.312 544.068 206.302C541.566 207.653 542.933 203.095 538.926 207.772C540.491 211.351 529.948 216.362 538.817 212.234C535.258 217.335 533.845 216.147 528.831 221.064C531.874 221.385 529.201 231.935 525.205 236.783C524.901 235.784 523.181 235.695 522.384 235.686C512.991 243.666 506.943 246.504 498.073 253.716C496.761 253.657 491.853 256.208 492.806 253.426C491.866 254.981 491.455 257.047 488.706 259.242C481.598 260.767 494.584 253.961 488.39 253.999C489.229 256.089 482.897 262.054 479.675 266.279C482.708 268.116 489.172 259.718 492.332 255.456C494.918 259.256 490.717 268.717 482.33 277.855C475.324 284.582 477.456 277.833 476.472 279.403C461.749 289.444 468.515 295.374 454.766 301.286C448.449 302.24 451.486 296.509 449.33 295.467C455.003 290.026 459.896 290.099 464.051 286.825L458.143 289.497C459.624 287.227 463.375 283.513 466.068 282.56C460.759 283.275 441.519 299.919 429.046 305.787C427.564 308.057 424.659 311.355 426.891 311.206L430.2 308.347C434.663 308.049 425.215 315.874 430.276 313.617C426.413 318.418 422.43 324.426 415.08 328.074L412.098 326.102C412.763 326.857 417.497 324.658 418.864 322.486C416.845 325.762 406.283 325.948 405.543 331.856L411.412 330.478C407.567 335.331 403.509 342.529 397.167 345.937C401.536 346.778 398.286 344.61 404.502 344.914C398.361 343.419 419.651 334.257 411.16 334.118C417.78 334.861 419.591 330.436 427.212 329.661C426.467 328.818 424.107 329.304 429.372 326.219C429.42 325.795 429.748 325.038 429.948 324.619C430.124 324.556 430.168 324.54 430.326 324.426C430.194 324.473 430.106 324.504 429.999 324.484C430.147 324.199 430.128 324.147 429.867 324.531C428.436 324.979 427.153 325.142 426.477 324.915C427.63 321.015 435.578 315.409 437.582 312.371C440.816 310.703 436.984 314.329 439.215 314.18L442.178 309.639C443.855 311.433 452.15 307.508 445.936 313.665L452.276 309.268C456.664 307.774 462.043 304.59 464.595 301.417C467.81 299.698 470.587 293.651 469.049 297.164L478.002 288.641L478.406 289.08C488.19 282.068 495.853 270.742 509.036 265.612C511.882 262.568 514.644 259.146 520.255 255.356L522.489 256.196C526.105 252.239 535.603 247.365 536.046 244.124C539.842 244.468 544.749 240.23 549.594 235.256C554.321 230.091 559.112 224.263 562.631 221.155L561.142 218.772C563.955 215.914 566.481 212.808 569.144 209.246L600.474 167.544L556.443 185.276C554.096 186.223 551.617 187.216 548.829 188.319L549.962 190.538C544.064 194.08 532.923 193.19 522.839 196.408C523.252 195.331 525.896 194.803 527.881 194.799C514.062 192.936 503.72 206.374 491.656 206.102C489.257 207.882 487.205 208.259 485.132 208.294C485.396 208.2 485.599 208.07 485.757 207.956C485.474 207.998 485.077 208.139 484.635 208.295C483.297 208.302 481.941 208.258 480.47 208.313C481.775 208.492 483.043 208.567 484.062 208.498C481.987 209.232 478.945 210.599 476.119 212.297L473.917 210.282C473.652 210.376 473.494 210.49 473.229 210.584C469.898 210.715 471.223 212.633 473.514 213.917C472.116 214.878 470.887 215.895 469.985 216.854C466.086 213.693 462.509 221.129 457.61 218.089C456.33 220.928 442.928 225.437 443.001 230.417C442.668 229.895 441.693 229.948 443.308 229.319C439.763 230.107 436.193 230.963 433.667 233.37L431.024 230.813L425.353 237.942C420.185 237.791 417.877 237.443 421.357 233.243C412.177 241.264 413.259 238.146 405.694 245.537L405.314 243.343C402.14 244.757 398.038 249.585 395.458 248.751C386.748 247.991 359.648 263.05 340.055 267.886C346.015 272.239 330.47 269.007 331.669 273.939C330.045 273 327.152 273.383 329.622 270.821C320.858 276.367 314.717 274.872 309.892 281.585C308.224 280.661 311.028 278.622 309.757 278.257C309.135 278.884 307.287 280.819 305.997 280.402C304.707 279.985 306.864 278.64 308.09 277.333C298.658 281.834 299.481 286.549 300.478 290.911C294.854 291.154 292.591 292.479 290.21 296.697C287.98 296.148 284.602 296.004 290.345 292.866C286.939 294.188 269.227 299.988 270.24 303.414C268.862 303.028 265.484 305.271 264.748 305.997C257.215 309.128 256.417 309.119 249.243 312.705L251.49 312.317C250.255 317.527 245.761 315.916 240.062 319.038L240.048 318.577C225.347 321.799 234.749 322.547 220.078 325.293L221.821 327.412C222.772 333.188 208.694 329.612 201.79 335.081L205.168 335.225C201.7 338.897 190.331 333.431 185.808 334.682C184.709 334.664 186.953 333.287 188.131 332.405C175.692 334.303 188.04 336.221 180.035 340.683C177.79 339.672 180.171 335.454 174.444 337.655C171.066 337.511 160.604 350.468 151.601 350.568C153.832 351.117 156.08 351.719 152.61 354.402C146.911 357.524 134.503 356.559 130.96 363.109C130.056 363.08 129.637 362.879 129.465 362.532C125.387 365.605 115.539 370.893 113.788 374.365C106.023 367.857 87.4762 390.95 84.2528 383.243L70.5463 389.838L70.5624 388.901C66.009 390.629 63.1834 392.327 61.1371 393.982C59.9153 394.88 59.9293 395.341 59.4944 396.077C59.1037 396.797 58.713 397.517 58.3481 398.17C56.9659 398.194 57.8023 396.908 57.7882 396.448C54.0303 397.195 52.5448 397.488 50.5835 398.822C48.5598 400.12 46.4941 402.423 40.5834 407.191L42.692 403.186C41.0063 404.597 38.8674 404.306 37.0856 401.095C36.2426 399.414 35.982 396.712 36.4114 394.697C36.7784 392.647 37.2143 391.212 36.8999 390.042C37.4037 389.922 38.1906 389.76 38.5835 390.029C38.2067 388.823 39.9666 386.92 41.8256 385.156C43.7912 383.413 45.9548 381.949 47.5738 380.911C49.2444 379.738 50.2046 379.223 50.9861 377.783C52.7912 375.165 53.8169 372.59 53.3324 369.676C55.2559 366.551 57.2601 363.514 59.2644 360.476C49.0393 369.333 58.1392 355.752 53.0993 358.35C56.6051 354.083 64.9466 351.132 60.4289 356.048L59.3955 356.355C60.6994 362.006 72.8424 346.359 74.6758 349.436C94.3615 331.528 116.342 317.581 135.329 300.503L130.831 299.3L137.519 293.5C139.796 292.636 141.661 293.838 136.931 298.015C140.755 297.593 143.568 289.264 143.187 288.467C153.182 281.206 142.486 295.468 145.258 292.915L148.822 289.093L147.692 289.551C149.746 285.39 148.966 283.745 154.535 278.573C158.483 275.838 157.825 278.748 159.282 277.534C159.462 277.762 159.981 277.403 161.414 275.558L169.498 267.808L164.42 268.615C166.919 263.889 171.86 261.151 166.014 262.172C174.908 261.063 195.854 233.104 199.968 230.834C203.125 223.896 207.676 218.794 213.464 212.555C211.624 213.671 208.531 212.088 213.568 206.814C216.619 214.174 224.424 198.898 231.744 198.113C226.036 199.667 244.682 181.486 236.002 184.324C240.35 180.05 238.033 185.992 242.172 183.655C249.698 170.398 264.02 160.209 274.934 145.579C274.472 144.695 271.544 145.963 273.094 141.923L282.363 137.945C284.331 134.804 280.766 131.466 287.108 128.757C285.975 128.925 284.302 129.109 285.599 127.021C298.384 114.872 309.063 99.8596 319.705 84.7438C330.392 69.6123 340.873 54.3207 353.876 41.1053C349.879 44.2656 351.512 41.3014 353.451 37.9379C351.823 39.7943 351.733 36.4503 350.505 36.0695C354.124 32.4026 357.582 28.56 361.102 24.7535C359.818 20.1434 369.016 9.78778 367.055 6.34894L365.265 11.115C365.236 3.03407 353.99 14.0563 350.489 10.0561C350.494 19.1932 336.057 22.3216 334.698 36.3068C332.553 37.8225 334.666 33.4078 333.022 33.8147C333.057 37.7025 331.526 41.0962 327.078 45.9295L327.076 44.9407C317.106 60.6921 310.897 65.741 297.423 81.2764L300.15 81.8251C297.201 85.1387 296.068 85.3065 294.372 86.547C293.943 93.3347 302.131 76.7584 302.25 83.4104C295.121 84.594 282.837 108.265 276.222 107.113C271.895 112.427 279.489 107.645 275.162 112.96L272.923 113.228L273.22 116.033C270.146 119.274 267.341 119.627 266.339 118.759C267.119 118.017 268.019 116.069 268.726 115.12C263.781 118.267 258.744 128.314 256.993 129.4L261.845 125.006C250.896 140.521 234.816 156.687 225.374 172.95L227.047 172.766C219.651 184.987 219.04 180.313 209.917 192.564L210.087 191.921C208.917 195.071 206.687 198.596 203.904 201.676C205.446 197.754 197.367 205.095 199.642 200.157C191.44 213.187 196.051 207.132 192.484 217.824L189.687 218.057C188.666 221.91 189.084 222.81 184.366 228.845C187.393 222.943 179.152 230.108 182.301 223.289C168.934 231.685 169.309 243.835 160.266 244.24C158.803 253.722 171.551 236.697 169.538 240.552C173.017 239.438 168.134 248.092 164.332 251.242C160.764 254.774 153.928 252.012 145.166 260.933C146.06 260.093 145.869 259.695 146.746 258.802C142.57 261.036 141.367 266.759 135.853 269.001C135.589 273.868 130.317 273.986 132.241 278.021L139.977 269.288C135.97 274.664 134.583 282.955 125.186 288.258C125.288 287 126.972 283.901 128.217 281.947C125.128 283.04 124.292 286.712 121.114 287.836C119.278 283.771 130.837 277.702 133.874 270.283C130.366 271.175 126.178 281.796 125.959 275.703C125.792 283.795 116.518 283.409 112.829 292.63L111.755 290.158C110.989 291.36 109.603 294.179 107.714 295.72L109.149 290.09C105.654 296.915 97.7732 296.676 93.6258 302.218C104.053 293.232 97.7789 302.728 103.293 300.486C92.3174 314.381 92.0024 301.279 78.0982 314.755C79.884 312.784 86.4245 309.655 83.993 313.31C80.9133 315.272 76.6677 317.589 74.1638 317.951C64.7623 326.749 77.1511 318.815 73.9532 323.672C68.8431 323.967 69.9608 328.81 66.3516 333.347L64.7776 331.284C52.8916 339.797 65.0762 338.164 54.188 345.566L56.1425 338.879L51.613 344.324L50.8754 340.976C46.7259 347.915 44.6473 349.058 38.869 353.78C40.0488 353.887 40.628 354.962 40.3278 356.64C40.1685 357.453 39.8252 358.448 39.1987 359.484C38.8855 360.003 38.5464 360.588 38.1008 361.153C37.9092 361.454 37.6552 361.719 37.4194 362.035C37.0696 362.45 36.7015 362.813 36.3516 363.228C30.9683 366.82 36.9574 358.764 28.2557 369.119C28.5043 367.576 28.8562 365.763 29.9617 363.975C30.2501 362.825 31.0197 361.912 32.0025 361.041C32.5031 360.631 33.0477 360.205 33.6366 359.764C34.2437 359.375 34.9391 358.954 35.417 358.901C35.1758 357.939 35.8292 356.136 35.588 355.174C35.0325 355.429 34.4695 355.802 33.9066 356.176L33.0896 356.815L31.8527 357.951C30.1078 359.616 28.3737 361.452 26.8786 363.261C23.8001 366.911 21.376 370.447 19.601 372.588C21.0628 370.965 22.841 369.113 23.9928 368.298L18.9769 377L15.5648 384.901C12.694 387.314 13.0459 385.501 13.5636 383.455C12.6422 385.062 11.949 386.471 11.5131 387.906C11.2979 389.263 11.031 390.754 10.1678 392.806C9.17202 392.518 7.98466 392.531 7.23216 391.807C6.86507 391.472 6.57546 390.934 6.47746 390.095C6.42359 389.241 6.18994 388.16 7.39119 386.221C7.08873 386.91 6.56561 387.678 6.42139 388.252L6.06947 390.065L5.34734 393.638C4.87704 395.958 4.14193 398.372 4.21631 400.267C3.57583 400.843 2.56943 402.77 1.86119 404.418C1.10881 406.081 0.592176 407.428 0.229363 406.683C-0.30221 410.655 1.14592 415.731 5.2659 421.2C7.32427 423.789 9.87565 426.088 12.3732 427.533C14.8707 428.978 17.1227 429.869 19.0217 430.885C19.772 430.62 20.941 430.555 23.0143 430.52C26.9833 431.212 30.2979 432.018 35.9009 431.433C38.6179 431.112 41.8689 430.195 45.4481 428.521C49.0348 426.728 52.9014 424.603 56.7282 422.085C59.6799 422.147 62.9406 422.099 66.5543 421.927C73.1357 418.492 69.2679 418.929 66.8975 418.546C65.6994 418.387 64.836 418.053 65.4108 417.151C65.7649 416.327 68.7305 414.463 71.089 412.988C79.0806 408.065 75.5824 414.6 78.9722 414.215C82.4404 410.544 88.1852 403.622 97.2621 403.03C94.9176 404.965 92.671 405.353 90.3642 406.693ZM178.513 365.436C177.03 366.717 174.264 369.85 172.358 368.952C173.15 365.296 175.222 365.96 178.513 365.436ZM311.09 299.148C310.139 300.532 307.974 301.007 305.378 301.11C306.883 300.17 308.762 299.447 311.09 299.148ZM456.121 304.415C456.147 304.348 456.217 304.265 456.243 304.198C460.23 302.554 458.792 303.121 456.121 304.415ZM448.37 308.613C447.821 309.447 448.063 309.711 448.596 309.813C448.763 308.881 450.327 307.688 452.299 306.524C451.384 306.324 450.181 306.575 448.37 308.613ZM159.123 275.961L157.438 276.673C159.811 273.273 159.445 274.624 159.123 275.961Z" fill="#4FBBEA"/>
<path d="M297.177 309.367C296.519 309.192 296.177 308.789 295.88 308.371C295.338 309.086 295.548 309.536 297.177 309.367Z" fill="#4FBBEA"/>
<path d="M19.2463 431.097L18.9707 431.02C18.7059 431.114 18.5031 431.243 18.3448 431.358L19.2463 431.097Z" fill="#4FBBEA"/>
<path d="M541.507 203.134C543.038 202.126 544.009 201.783 544.796 201.621C544.462 201.099 543.605 201.344 541.507 203.134Z" fill="#4FBBEA"/>
<path d="M412.667 339.638L416.904 335.753C414.769 337.439 413.663 337.54 412.321 337.956C412.743 338.447 414.073 338.559 412.667 339.638Z" fill="#4FBBEA"/>
<path d="M364.665 354.991C364.186 355.743 363.278 356.122 362.843 356.858L363.694 357.721C366.444 355.526 367.862 353.22 364.665 354.991Z" fill="#4FBBEA"/>
<path d="M403.861 335.244C402.346 333.627 399.868 336.308 396.893 338.99C397.096 338.86 397.236 338.694 397.438 338.565C398.132 341.928 401.018 338.579 403.861 335.244Z" fill="#4FBBEA"/>
<path d="M396.165 339.598C395.252 340.386 394.251 341.206 393.265 341.788C393.546 343.143 394.578 341.148 396.165 339.598Z" fill="#4FBBEA"/>
<path d="M440.002 316.405C438.175 316.993 440.498 319.489 439.167 319.378C438.96 323.002 447.622 309.168 440.002 316.405Z" fill="#4FBBEA"/>
<path d="M397.469 330.929L400.029 332.41L400.703 329.261L397.469 330.929Z" fill="#4FBBEA"/>
<path d="M423.905 314.416L418.365 317.424C418.688 317.775 418.19 318.475 417.454 319.201C420.718 317.057 424.471 315.031 423.905 314.416Z" fill="#4FBBEA"/>
<path d="M417.473 319.253C415.784 320.375 414.264 321.553 413.593 322.605C414.436 321.899 416.316 320.477 417.473 319.253Z" fill="#4FBBEA"/>
<path d="M404.068 325.159L405.896 324.571L409.609 322.152L404.068 325.159Z" fill="#4FBBEA"/>
<path d="M479.184 274.718L484.261 269.837C484.318 268.595 482.527 269.287 480.678 271.221C479.72 272.724 477.854 274.607 479.184 274.718Z" fill="#4FBBEA"/>
<path d="M458.49 280.934C460.3 280.294 460.703 280.733 462.052 280.896L460.45 277.912L458.49 280.934Z" fill="#4FBBEA"/>
<path d="M474.157 268.231C474.233 267.041 480.64 259.884 473.842 265.374C473.767 266.565 468.672 271.395 474.157 268.231Z" fill="#4FBBEA"/>
<path d="M554.783 202.337L553.575 203.696L557.252 207.633L554.783 202.337Z" fill="#4FBBEA"/>
<path d="M483.968 237.286C491.954 235.857 484.606 233.335 492.033 232.57C493.359 230.704 485.996 233.192 487.439 231.517C483.307 234.435 480.623 234.569 483.968 237.286Z" fill="#4FBBEA"/>
<path d="M487.377 231.481C488.054 231.009 488.713 230.485 489.441 229.878C488.227 230.656 487.701 231.134 487.377 231.481Z" fill="#4FBBEA"/>
<path d="M368.15 17.0212C369.383 15.5952 370.554 14.1331 371.707 12.6192L368.568 14.8357L368.15 17.0212Z" fill="#4FBBEA"/>
<path d="M370.009 5.01269L373.35 5.75176L372.445 0.949402C371.998 2.2134 371.094 4.57058 370.009 5.01269Z" fill="#4FBBEA"/>
<path d="M194.499 366.125L194.515 365.188C193.427 364.641 192.298 365.099 189.977 365.978L194.499 366.125Z" fill="#4FBBEA"/>
<path d="M128.994 392.502L130.123 392.044L126.821 390.011L128.994 392.502Z" fill="#4FBBEA"/>
<path d="M76.5512 420.427C78.8279 419.563 81.1208 417.763 83.3975 416.899C78.8279 419.563 74.3508 417.015 76.5512 420.427Z" fill="#4FBBEA"/>
<path d="M472.135 439.83C471.432 440.587 475.099 441.692 475.663 442.059C475.529 440.381 471.205 439.475 472.135 439.83Z" fill="#4FBBEA"/>
<path d="M471.575 421.404L472.754 422.453L470.715 418.374L471.575 421.404Z" fill="#4FBBEA"/>
<path d="M480.186 408.014C477.093 406.77 476.44 408.117 476.135 409.912C475.882 411.745 476.052 413.923 474.314 414.527L472.826 414.125L476.572 417.974C477.598 414.683 477.219 408.955 480.186 408.014Z" fill="#4FBBEA"/>
<path d="M496.311 409.807C494.007 408.619 495.644 407.113 494.542 410.784C494.869 410.822 495.018 410.89 495.249 410.898C495.436 410.638 495.698 410.274 496.311 409.807Z" fill="#4FBBEA"/>
<path d="M495.249 410.898C497.578 411.393 494.461 412.267 495.249 410.898V410.898Z" fill="#4FBBEA"/>
<path d="M498.723 404.316L499.076 407.337C500.503 407.932 501.967 406.775 502.343 407.955C502.784 405.586 501.394 404.939 498.723 404.316Z" fill="#4FBBEA"/>
<path d="M496.411 399.683L496.42 401.152C497.015 401.423 497.372 401.364 496.411 399.683Z" fill="#4FBBEA"/>
<path d="M496.465 404.268L496.426 401.197C495.437 400.76 493.796 399.418 496.271 402.508C494.937 401.071 496.062 402.634 496.465 404.268Z" fill="#4FBBEA"/>
<path d="M494.834 404.671C492.958 404.7 491.331 405.424 490.912 402.276C489.102 406.108 493.047 408.362 494.834 404.671Z" fill="#4FBBEA"/>
<path d="M475.223 403.444L472.66 403.768L473.566 406.24C473.139 405.023 476.916 404.548 475.223 403.444Z" fill="#4FBBEA"/>
<path d="M509.976 396.745C509.071 395.698 506.849 394.726 505.43 393.624L505.474 395.868C506.724 395.941 508.477 395.427 509.976 396.745Z" fill="#4FBBEA"/>
<path d="M505.43 393.624L505.436 390.269C503.733 391.648 504.272 392.709 505.43 393.624Z" fill="#4FBBEA"/>
<path d="M491.239 394.688L492.442 400.971L491.688 394.063L491.239 394.688Z" fill="#4FBBEA"/>
<path d="M516.488 390.496L517.748 393.738L516.131 388.579L516.488 390.496Z" fill="#4FBBEA"/>
<path d="M520.52 385.936C521.589 388.566 524.576 388.31 524.882 390.19C525.751 388.763 525.278 386.129 524.848 383.764C524.587 385.552 523.326 386.262 520.52 385.936Z" fill="#4FBBEA"/>
<path d="M524.49 380.146C524.412 381.077 524.578 382.383 524.855 383.808C524.926 382.832 524.886 381.736 524.49 380.146Z" fill="#4FBBEA"/>
<path d="M508.799 387.793C509.519 388.274 511.331 389.542 512.941 389.28L509.524 387.17C509.322 387.341 509.083 387.563 508.799 387.793Z" fill="#4FBBEA"/>
<path d="M509.418 387.095L509.522 387.17C510.337 386.533 510.905 386.073 511.151 385.895C510.942 386.021 510.449 386.377 509.418 387.095Z" fill="#4FBBEA"/>
<path d="M508.641 387.957L508.843 387.786C508.486 387.569 508.345 387.546 508.641 387.957Z" fill="#4FBBEA"/>
<path d="M498.175 392.183C497.537 389.668 497.918 385.793 493.502 385.728C494.705 388.336 497.237 388.384 498.175 392.183Z" fill="#4FBBEA"/>
<path d="M504.37 385.389L501.915 386.66C502.664 387.319 504.069 388.056 504.362 389.295L504.37 385.389Z" fill="#4FBBEA"/>
<path d="M504.398 383.592L504.368 385.388L505.257 384.922L504.398 383.592Z" fill="#4FBBEA"/>
<path d="M518.748 380.389C518.466 378.367 519.229 377.416 520.15 376.302C518.472 376.712 517.084 377.489 516.007 378.491C516.636 379.537 517.656 381.577 518.748 380.389Z" fill="#4FBBEA"/>
<path d="M513.947 383.328C513.925 383.194 514 383.09 513.986 383C513.599 382.879 513.464 382.901 513.947 383.328Z" fill="#4FBBEA"/>
<path d="M530.807 367.313C530.606 367.208 530.397 367.058 530.189 366.907L530.552 367.447L530.807 367.313Z" fill="#4FBBEA"/>
<path d="M515.302 378.1C513.961 378.317 514.105 379.489 514.45 380.765C514.818 379.924 515.283 379.114 516.001 378.446C515.697 377.99 515.475 377.75 515.302 378.1Z" fill="#4FBBEA"/>
<path d="M526.153 376.246C525.201 376.033 524.218 375.917 523.302 375.928C524.536 376.463 526.671 377.173 526.153 376.246Z" fill="#4FBBEA"/>
<path d="M514.945 383.534C514.96 383.623 514.974 383.713 514.937 383.765C515.778 384.135 515.503 383.857 514.945 383.534Z" fill="#4FBBEA"/>
<path d="M514.945 383.534C515 382.744 514.654 381.743 514.457 380.81C514.156 381.502 513.952 382.224 513.942 383.007C514.239 383.143 514.633 383.309 514.945 383.534Z" fill="#4FBBEA"/>
<path d="M518.629 345.168C520.717 348.137 520.252 352.623 515.744 351.426C515.356 355.256 524.306 363.176 530.182 366.863C529.241 365.591 528.323 364.454 529.118 361.154C527.126 360.191 521.58 361.367 521.306 357.415C522.944 353.657 524.422 356.541 526.96 356.91C522.964 354.343 526.538 348.938 521.828 344.235L520.71 348.092C520.043 347.374 519.939 345.323 518.629 345.168Z" fill="#4FBBEA"/>
<path d="M526.073 369.827L525.511 370.883C526.882 370.568 528.481 371.09 531.515 372.251C531.756 369.777 531.225 368.485 530.559 367.49L526.138 370.505L526.073 369.827Z" fill="#4FBBEA"/>
<path d="M521.848 374.05C519.904 370.553 520.839 367.552 516.863 365.395C514.583 367.741 517.279 369.371 516.957 371.904C520.235 367.788 517.289 374.515 521.522 373.736C521.204 374.89 520.635 375.626 520.104 376.309C521.118 376.053 522.154 375.931 523.256 375.935C523.159 375.905 523.107 375.868 523.01 375.837L523.018 375.882L522.966 375.845C522.468 375.604 522.215 375.461 522.587 375.493C522.58 375.448 522.617 375.396 522.61 375.351C522.351 374.888 522.1 374.469 521.848 374.05C523.488 373.692 522.687 374.695 522.655 375.344C522.773 375.508 522.892 375.673 523.01 375.837L523.062 375.875L525.517 370.928C524.31 371.124 523.375 372.149 521.848 374.05Z" fill="#4FBBEA"/>
<path d="M489.341 377.904C489.728 378.025 489.899 378.227 490.114 378.422C490.02 377.84 489.879 377.54 489.341 377.904Z" fill="#4FBBEA"/>
<path d="M492.566 377.978C492.675 378.649 493.578 379.973 492.436 380.572C490.828 380.557 491.079 379.276 490.114 378.422C490.318 379.676 490.277 382.255 493.332 381.851L493.23 381.224C495.698 380.594 501.039 382.116 501.141 382.742C498.2 380.739 496.046 379.343 492.566 377.978Z" fill="#4FBBEA"/>
<path d="M506.683 374.766L508.637 370.406L504.671 369.442L506.14 370.857C503.745 371.935 505.862 373.384 506.683 374.766Z" fill="#4FBBEA"/>
<path d="M532.372 368.482L534.562 372.078L532.836 365.972L532.372 368.482Z" fill="#4FBBEA"/>
<path d="M536.431 364.653L538.512 367.578L538.322 364.99L536.431 364.653Z" fill="#4FBBEA"/>
<path d="M365.302 404.52L364.329 405.872C364.852 405.42 365.144 404.959 365.302 404.52Z" fill="#4FBBEA"/>
<path d="M374.658 401.944L374.375 400.198C374.229 401.278 374.256 402.009 374.658 401.944Z" fill="#4FBBEA"/>
<path d="M523.382 296.705C520.151 294.611 515.928 290.931 518.007 294.407L520.325 297.661C521.134 296.427 522.222 296.342 523.382 296.705Z" fill="#4FBBEA"/>
<path d="M443.511 357.087C443.838 357.402 444.119 357.723 444.439 357.993C444.437 356.569 444.405 355.242 444.388 354.004C444.13 354.965 443.843 356.022 443.511 357.087Z" fill="#4FBBEA"/>
<path d="M447.819 372.882L444.504 371.399C445.38 371.992 446.428 372.511 447.819 372.882Z" fill="#4FBBEA"/>
<path d="M299.302 375.353L297.777 371.328C295.938 373.005 298.124 373.753 299.302 375.353Z" fill="#4FBBEA"/>
<path d="M584.847 323.666C587.358 323.305 588.948 322.357 590.077 321.393C586.716 321.893 582.944 320.989 584.847 323.666Z" fill="#4FBBEA"/>
<path d="M356.85 363.483C356.265 364.405 356.173 365.247 356.452 366.121C357.082 365.191 357.308 364.328 356.85 363.483Z" fill="#4FBBEA"/>
<path d="M594.015 316.526C593.471 316.569 593.09 316.768 592.554 316.855C592.086 318.494 591.528 320.146 590.078 321.393C592.604 321.12 594.88 319.878 594.015 316.526Z" fill="#4FBBEA"/>
<path d="M455.709 258.943C455.903 259.004 456.134 259.012 456.335 259.117C456.076 258.653 455.904 258.727 455.709 258.943Z" fill="#4FBBEA"/>
<path d="M523.861 264.327C523.524 264.795 522.77 265.239 522.069 265.721C522.575 265.73 523.113 265.367 523.861 264.327Z" fill="#4FBBEA"/>
<path d="M555.71 352.242C555.791 352.736 554.811 353.217 555.71 352.242V352.242Z" fill="#4FBBEA"/>
<path d="M541.634 343.271C541.599 342.772 541.415 342.204 540.874 341.419C541.377 342.256 541.613 342.861 541.634 343.271Z" fill="#4FBBEA"/>
<path d="M581.105 291.285L581.18 291.181C580.308 291.185 580.487 291.156 581.105 291.285Z" fill="#4FBBEA"/>
<path d="M553.134 351.926C553.797 352.048 554.437 352.036 555.108 351.927C554.684 351.858 554.081 351.818 553.134 351.926Z" fill="#4FBBEA"/>
<path d="M554.41 353.28C553.97 353.398 553.619 353.501 553.314 353.596C553.602 354.239 553.913 354.464 554.41 353.28Z" fill="#4FBBEA"/>
<path d="M556.98 351.025C556.42 351.53 555.771 351.773 555.063 351.934C555.442 352.01 555.643 352.116 555.665 352.25C555.941 351.975 556.338 351.589 556.98 351.025Z" fill="#4FBBEA"/>
<path d="M376.886 327.471C377.035 327.539 377.169 327.517 377.318 327.585C377.348 325.512 377.071 326.063 376.886 327.471Z" fill="#4FBBEA"/>
<path d="M512.385 347.698C512.422 347.646 512.401 347.512 512.438 347.46C512.342 347.43 512.297 347.437 512.2 347.407L512.385 347.698Z" fill="#4FBBEA"/>
<path d="M509.402 352.226C509.192 346.976 510.451 347.093 512.2 347.407L506.087 337.74L509.402 352.226Z" fill="#4FBBEA"/>
<path d="M343.383 412.259L347.41 414.729C345.372 421.401 342.159 420.268 346.419 424.171C343.376 412.214 357.862 419.465 354.782 407.56L357.522 409.458C356.934 409.508 357.005 410.231 356.417 410.281C362.007 414.749 356.775 400.896 362.263 401.061C364.294 401.421 366.031 402.793 365.257 404.527L368.268 400.454C369.489 400.348 369.831 402.452 368.616 402.603L374.273 399.847L374.331 400.205C374.63 398.089 375.679 394.656 376.214 393.145C378.249 394.377 375.858 394.627 376.671 395.965L379.07 392.084C381.331 394.704 379.566 398.528 377.129 398.786C383.841 409.596 378.947 394.999 387.708 399.779L385.077 402.228C389.178 408.27 390.829 405.153 395.68 408.179C394.139 406.316 385.339 399.888 387.992 395.874C389.278 396.446 390.745 396.437 391.919 393.49C393.242 397.686 394.813 396.053 397.081 395.041L398.675 400.618C400.717 398.218 399.626 395.455 400.338 392.491C403.356 392.139 405.305 396.233 407.139 399.611C411.952 399.013 401.785 393.772 406.838 390.976C411.296 391.861 413.215 388.7 416.615 383.921C419.903 384.95 417.279 387.443 418.771 388.717L419.633 383.569C420.259 383.468 420.491 384.9 420.652 385.609C422.062 383.267 418.969 380.047 421.549 377.561C420.3 371.285 430.891 384.223 432.361 376.035C433.845 377.265 433.069 379.55 434.089 381.59C437.741 375.254 437.437 376.773 439.56 369.215L444.504 371.399C440.375 368.302 442.039 362.151 443.519 357.132C441.879 355.514 440.448 354.047 439.616 353.447L443.217 348.773C444.108 349.455 444.346 351.484 444.395 354.049C444.531 353.476 444.675 352.947 444.774 352.426C447.203 353.823 447.487 357.269 447.414 360.773C446.442 359.874 445.462 358.93 444.491 358.031C444.55 361.789 444.794 365.838 446.167 368.924C446.23 368.178 446.657 367.42 447.211 366.871C447.236 367.877 447.33 368.735 447.685 369.229C448.048 369.767 448.091 368.336 448.373 366.682L451.679 372.348L451.041 369.832L458.721 371.342C460.897 363.546 461.312 353.095 467.261 347.902C467.262 353.002 469.741 355.264 471.738 360.499C467.654 355.695 467.192 365.005 463.11 365.3C465.24 365.138 465.81 367.802 465.612 368.845L470.208 361.253C471.74 365.599 472.841 363.904 475.272 365.026C470.635 357.095 477.902 357.477 479.458 353.779C480.78 356.55 481.333 359.677 477.816 360.34C483.97 365.176 478.384 348.577 484.021 352.486C483.26 352.886 482.665 352.615 482.964 354.174C483.767 350.92 489.017 351.032 489.027 353.925L488.266 354.324C493.923 353.268 504.082 347.438 501.661 340.158C502.127 341.047 504.784 348.932 505.128 350.484C504.673 341.185 504.152 332.035 503.422 322.734C505.422 329.118 515.171 341.962 512.468 347.363C514.076 347.653 516.093 347.923 517.655 344.545C516.391 344.107 511.498 336.861 512.373 335.754C518.631 340.941 516.184 338.306 522.774 342.152C520.915 341.443 517.775 331.431 519.878 330.814C520.266 332.359 524.526 339.938 524.282 341.264L524.663 329.761C524.297 332.026 528.281 337.628 530.671 339.629C529.277 338.11 534.983 337.643 535.831 336.081L532.723 335.023C538.91 333.559 531.578 319.496 537.091 317.268C537.447 319.462 541.525 329.597 544.915 329.276C543.729 323.955 538.492 304.13 540.966 298.169L543.281 300.274L545.058 295.391C546.858 303.369 548.708 321.263 548.245 328.874C551.384 329.834 550.483 331.634 553.388 329.739C555.801 331.598 553.771 334.363 552.92 335.052L560.98 332.687C557.664 327.528 563.434 324.34 560.636 320.108L556.068 329.855C552.835 324.637 552.08 312.354 557.42 310.476C559.887 311.821 561.923 320.404 563.026 322.109C562.625 319.923 565.68 315.843 566.86 316.892L566.419 320.961C570.372 321.284 566.74 311.352 573.014 314.377C574.333 314.025 580.517 319.04 578.847 315.819C573.295 311.023 561.765 292.863 560.192 287.696C560.832 287.96 569.262 289.854 572.352 291.925C577.082 295.338 576.665 304.641 580.682 307.618C579.854 306.191 579.737 303.775 579.837 302.977C581.749 303.448 582.149 307.61 584.258 305.338C581.309 299.89 589.662 302.439 582.596 300.186C584.075 297.143 585.89 299.559 588.624 297.461C586.835 296.052 585.509 292.408 584.846 288.886L581.624 286.284C583.798 288.367 585.359 290.916 585.538 292.587C584.209 291.746 582.05 291.453 581.105 291.285C577.92 296.259 573.843 297.15 570.639 301.162C569.174 300.619 566.259 301.322 564.884 298.789C565.267 300.013 566.399 301.897 565.5 303.145C559.577 301.718 567.113 300.081 560.816 297.473C563.427 299.99 561.953 303.629 561.873 306.812C566.29 310.276 566.369 303.693 566.009 300.628C571.895 305.507 575.175 314.118 573.002 321.087C570.704 325.871 568.103 318.896 568.194 320.305C560.72 325.148 570.917 335.668 561.577 336.082C556.29 334.046 555.523 328.473 552.889 326.098C554.669 322.363 559.313 324.963 561.174 323.145L557.264 323.366C557.168 321.36 558.272 318.838 560.23 319.025C555.68 317.283 548.519 327.451 540.719 328.028C540.771 330.041 540.128 332.581 542.037 333.603L543.311 331.834C547.175 333.872 543.343 338.537 546.591 338.469C545.942 342.388 546.025 347.704 541.651 348.184L537.743 344.178C538.773 345.436 541.737 345.322 541.596 343.323C541.8 346.276 532.334 340.829 535.293 347.746L539.748 349.183C539.181 353.042 540.182 359.772 536.478 360.419C541.022 363.816 536.735 359.458 542.515 363.114C535.996 358.016 549.475 358.217 541.786 353.538C548.21 358.055 547.066 353.554 553.413 356.751C552.265 355.329 550.406 354.62 553.27 353.604C553.048 353.088 552.887 352.379 552.815 351.932C552.904 351.917 552.949 351.91 553.045 351.94L552.8 351.842C552.749 351.529 552.697 351.491 552.703 351.812C551.654 351.569 550.666 351.132 549.864 350.435C548.533 346.194 552.372 343.549 552.39 340.836C554.35 340.471 553.059 342.978 554.962 343.956L554.948 339.915C557.572 343.073 562.84 342.447 560.863 346.949L564.082 344.727C567.319 345.166 570.497 343.823 570.985 341.171C573.05 340.606 571.935 334.584 572.643 338.099C573.776 336.031 574.916 334.008 575.99 331.858L576.702 332.57C579.361 330.576 580.701 326.958 582.613 323.753C584.525 320.548 586.978 317.853 592.456 316.826C593.189 314.272 593.655 311.485 596.898 308.569L600.342 309.71C601.092 306.418 608.52 302.134 605.784 299.132C607.631 299.2 609.114 298.73 610.347 297.84L639.671 276.355L567.5 263.169C562.581 262.268 559.795 269.704 556.233 270.374L558.578 274.358C556.092 275.727 554.481 278.24 552.367 281.615L554.655 284.966C553.721 289.39 546.375 286.54 542.431 289.385C541.96 287.899 543.198 287.607 544.403 287.962C534.905 282.888 536.953 299.739 529.131 296.506C528.669 298.465 527.612 298.453 526.295 297.978C526.422 297.911 526.452 297.814 526.468 297.628C526.334 297.65 526.162 297.724 525.953 297.849C525.113 297.48 524.214 297.029 523.344 296.757C524.272 297.387 525.127 297.846 525.699 297.983C524.826 298.538 523.727 299.681 522.834 301.25L520.234 297.675C520.159 297.779 520.077 297.838 520.002 297.943C517.95 297.173 519.881 300.305 522.09 302.887C521.744 303.863 521.508 304.957 521.518 306.15C517.237 300.413 519.038 310.091 514.213 304.12C514.965 307.904 508.642 309.941 511.249 317.237C510.783 316.347 510.151 316.128 510.86 315.692C508.924 315.638 507.033 315.578 506.583 318.178L503.571 313.475L503.366 321.824C499.859 319.729 498.256 318.335 498.439 313.527C496.298 321.823 495.518 317.585 493.945 325.421L492.663 322.046C491.23 322.83 490.746 328.33 488.626 326.009C482.59 321.338 471.397 332.39 460.228 330.022C465.843 339.173 454.4 327.201 457.035 334.951C455.591 332.842 453.89 331.97 454.525 329.386C450.912 333.418 446.412 328.314 445.726 335.96C444.32 333.799 445.384 332.156 444.406 330.937C444.232 331.562 443.718 333.484 442.74 332.264C441.761 331.045 442.659 330.072 442.999 328.776C438.567 330.874 440.772 338.235 442.911 345.193C439.368 342.874 438.359 343.727 438.272 348.841C436.626 346.902 434.407 345.103 437.043 343.251C435.306 343.579 425.945 343.582 427.666 349.092C426.643 347.88 425.206 349.492 425.01 350.259C421.215 351.196 420.695 350.821 417.27 352.618L418.601 353.183C419.436 360.307 416.081 355.751 413.43 357.514L413.269 356.805C404.915 354.256 411.088 360.054 402.626 356.833L404.331 360.829C406.632 369.92 396.732 357.56 393.951 362.193L396.095 364.096C394.956 367.819 386.269 353.883 383.813 353.455C383.115 352.833 384.124 351.98 384.596 351.214C377.379 347.745 385.609 356.885 381.852 359.47C380.18 356.801 380.498 351.696 377.526 352.04C375.426 350.13 372.413 364.081 366.823 359.613C368.342 361.618 369.905 363.615 368.488 365.913C365.741 367.646 357.863 359.827 357.362 367.765C356.776 367.263 356.458 366.717 356.274 366.15C354.573 368.677 349.788 371.43 349.614 375.731C343.25 361.97 337.482 386.936 333.626 373.64L326.83 376.444L326.598 375.011C321.852 375.46 321.204 379.103 320.512 382.753C319.218 382.136 319.626 380.691 319.465 379.982C313.167 379.351 311.907 379.785 309.376 385.112L321.785 406.99C321.721 406.035 321.674 404.894 321.605 403.619L325.101 406.497C324.48 403.52 337.03 405.066 338.433 396.752C338.73 397.163 339.218 397.911 339.215 398.738C341.299 389.808 360.71 396.305 352.091 382.221L353.181 375.933C347.508 379.151 349.265 369.907 345.498 369.599C346.811 367.227 353.67 369.054 351.857 371.737L350.935 371.428C355.598 378.665 358.96 368.563 362.591 373.119C371.964 364.706 384.387 360.667 393.821 353.76L388.655 349.361L392.105 347.147C393.89 347.684 396.434 350.349 393.985 351.941C397.477 353.947 395.891 346.44 395.099 345.236C401.249 343.824 398.062 352.75 399.556 351.772L401.135 349.908L400.265 349.635C400.136 346.302 398.508 343.902 401.516 342.081C404.087 341.801 404.917 344.653 405.737 344.336C406.026 344.703 406.391 344.689 406.917 343.685L411.351 341.036L406.559 338.092C406.826 334.649 410.614 335.366 405.124 332.076C413.355 337.264 422.601 323.266 426.023 324.273C426.415 319.339 429.058 317.531 432.514 315.638C431.086 315.318 427.238 310.843 430.409 309.455C436.361 320.113 438.516 310.207 445.77 315.875C440.488 312.459 452.864 309.256 445.092 304.636C447.992 303.844 447.796 308.287 451.15 309.442C454.085 301.798 465.099 303.777 471.177 297.966C470.446 296.569 467.941 295.276 468.147 292.302L476.15 296.654C477.095 295.122 472.461 288.064 477.96 291.122C476.891 290.193 475.25 288.851 475.91 287.825C493.71 285.808 501.04 264.816 522.702 269.34C519.23 267.744 520.403 266.772 521.807 265.809C520.46 265.706 519.87 262.356 518.618 260.584L527.592 262.435C525.769 256.574 533.879 258.474 531.726 253.126L530.303 255.103C529.61 247.726 519.445 243.909 515.566 236.131C516.412 244.447 502.258 230.48 502.931 242.822C500.991 241.897 502.451 239.868 500.893 238.467C501.533 242.406 500.491 243.908 496.931 244.026L496.771 243.041C489.623 248.199 484.616 247.036 474.818 250.005L477.65 253.313C475.547 253.93 474.478 253.001 473.043 252.637C474.378 259.45 478.275 249.812 480.152 257.134C473.212 251.139 467.408 264.854 460.556 257.421C457.757 259.116 464.005 261.134 461.25 262.822L459.075 261.015L460.216 264.368C458.12 265.03 455.418 262.803 454.1 260.904C454.689 260.854 454.985 259.566 455.366 259.09C451.32 257.909 449.321 264.253 447.974 263.874L451.506 263.576C445.371 270.453 434.314 273.581 430.285 282.965L431.962 284.254C428.658 291.04 426.365 285.393 421.428 290.881L421.385 290.337C421.375 292.819 420.362 294.776 418.63 295.7C418.739 292.696 413.201 293.917 413.632 290.355C410.154 297.765 412.594 294.98 413.109 303.81L410.288 301.695C410.743 305.067 411.564 306.45 409.222 309.265C409.894 305.205 404.363 306.47 404.785 301.44C394.357 299.962 400.177 314.042 390.983 307.448C393.768 316.966 399.331 307.701 398.955 310.473C402.047 311.992 400.78 317.757 398.357 318.38C396.319 319.676 387.981 311.289 383.237 315.138C383.737 314.827 383.36 314.199 383.86 313.888C380.608 313.359 382.275 319.107 377.693 317.738C379.905 323.168 374.617 319.707 378.659 325.667L382.022 320.94C380.646 324.334 383.494 332.831 376.963 332.743C376.372 331.368 376.434 328.923 376.604 327.425C374.097 326.684 375.192 330.319 372.596 329.592C368.509 323.64 376.952 324.199 376.278 317.784C373.118 316.413 374.421 325.85 371.002 318.64C375.172 327.933 365.48 321.375 366.943 329.821L364.484 326.269C364.406 327.2 364.62 329.647 363.582 330.32L361.78 324.594C362.129 330.418 354.158 325.418 353.256 329.47C358.427 325.139 357.704 332.561 361.85 333.221C359.063 342.908 351.089 327.432 345.146 334.922C345.717 333.634 350.445 333.923 350.159 336.681C348.258 337.127 345.404 337.361 343.122 336.307C338.963 340.933 346.656 339.133 346.336 342.815C341.402 340.124 345.398 346.367 344.418 349.375L341.579 346.022C334.435 348.377 346.015 354.124 339.053 355.621L337.15 349.268L335.669 352.587L332.96 348.34C332.649 353.491 331.182 353.499 327.617 354.721C330.247 356.5 332.448 361.013 330.22 363.12C326.916 362.554 328.389 359.191 325.493 362.555C324.409 359.837 323 356.528 327.104 358.342C326.312 357.139 326.02 355.624 325.273 354.413C321.567 353.636 320.478 357.672 319.32 358.733C319.872 358.46 320.603 358.157 321.28 358.369L320.545 367.126C318.708 366.551 318.416 365.037 318.176 363.559C317.545 364.764 318.207 366.862 317.032 368.386C315.033 365.402 312.489 362.737 313.418 359.691L311.476 366.669C310.139 365.783 306.297 365.58 306.012 364.11C302.092 364.838 304.539 374.825 299.374 375.801C299.669 376.488 299.793 377.249 299.409 378.276C298.491 378.839 297.454 379.237 296.41 379.59L218.573 406.7L319.957 420.61C323.195 421.05 326.47 421.713 328.945 417.176L333.392 422.519C336.664 420.058 327.536 415.842 332.974 411.743C336.718 408.517 336.127 416.469 338.126 417.753C339.399 414.008 341.276 406.628 346.712 410.432C345.775 412.008 344.489 411.436 343.383 412.259ZM387.94 395.836C387.347 396.989 386.403 400.221 385.027 397.963C384.518 392.854 386 394.91 387.94 395.836ZM452.985 362.579C452.829 364.166 451.587 363.863 449.886 362.715C450.611 362.092 451.587 361.887 452.985 362.579ZM565.006 340.809C564.991 340.72 564.984 340.675 564.97 340.585C567.77 340.59 566.705 340.533 565.006 340.809ZM560.294 342.034C560.328 342.809 560.677 343.258 561.196 343.633C560.791 342.55 561.509 341.882 562.635 341.47C561.692 340.75 560.77 340.44 560.294 342.034ZM405.379 342.694L404.025 342.271C404.734 340.134 405.027 341.373 405.379 342.694Z" fill="#4FBBEA"/>
<path d="M447.335 371.031C446.824 370.425 446.477 369.7 446.167 368.924C446.074 369.766 446.339 370.55 447.335 371.031Z" fill="#4FBBEA"/>
<path d="M299.605 376.086C299.65 376.079 299.687 376.027 299.732 376.019C299.599 375.765 299.473 375.556 299.302 375.353L299.605 376.086Z" fill="#4FBBEA"/>
<path d="M583.232 308.628C582.122 308.579 581.275 308.165 580.555 307.685C581.117 308.604 581.941 309.16 583.232 308.628Z" fill="#4FBBEA"/>
<path d="M546.767 361.322L548.155 358.845C547.295 359.766 546.344 359.277 545.443 359.102C546.118 359.865 547.365 360.765 546.767 361.322Z" fill="#4FBBEA"/>
<path d="M512.083 354.318C512.148 354.996 511.485 354.874 511.505 355.56L512.892 357.035C514.125 355.87 513.984 353.871 512.083 354.318Z" fill="#4FBBEA"/>
<path d="M536.084 351.202C533.705 348.418 533.108 350.399 532.052 352.086C532.134 352.027 532.209 351.923 532.298 351.909C535.073 356.282 535.575 353.72 536.084 351.202Z" fill="#4FBBEA"/>
<path d="M531.833 352.443C531.496 352.911 531.062 353.349 530.547 353.571C531.605 355.283 531.307 353.447 531.833 352.443Z" fill="#4FBBEA"/>
<path d="M557.257 347.351C555.939 347.151 559.579 351.477 558.287 350.584C560.242 354.999 559.928 342.323 557.257 347.351Z" fill="#4FBBEA"/>
<path d="M527.509 342.486L530.825 345.669L529.424 342.129L527.509 342.486Z" fill="#4FBBEA"/>
<path d="M541.499 336.217L538.323 337.009C538.827 337.57 538.787 338.174 538.606 338.754C540.137 337.725 542.351 337.228 541.499 336.217Z" fill="#4FBBEA"/>
<path d="M538.554 338.717C537.718 339.22 537.037 339.836 537.049 340.753C537.452 340.412 538.289 339.633 538.554 338.717Z" fill="#4FBBEA"/>
<path d="M529.995 338.866L531.268 339.073L533.216 338.068L529.995 338.866Z" fill="#4FBBEA"/>
<path d="M567.815 316.277L569.34 312.951C568.481 311.62 567.148 311.607 566.711 312.873C566.929 314.216 566.41 315.54 567.815 316.277Z" fill="#4FBBEA"/>
<path d="M552.217 313.48C553.482 313.643 554.157 314.406 555.487 315.247L551.93 310.862L552.217 313.48Z" fill="#4FBBEA"/>
<path d="M558.106 306.505C557.285 305.122 558.064 300.309 555.677 303.132C556.58 304.456 555.235 307.477 558.106 306.505Z" fill="#4FBBEA"/>
<path d="M570.606 298.411L571.301 297.885L566.282 290.154L570.606 298.411Z" fill="#4FBBEA"/>
<path d="M542.496 339.823C547.15 339.94 540.73 334.32 545.263 335.1C545.108 332.736 541.534 334.465 541.558 332.348C540.42 335.519 538.672 334.93 542.496 339.823Z" fill="#4FBBEA"/>
<path d="M541.514 332.356C541.709 331.864 541.846 331.291 541.953 330.538C541.629 331.372 541.538 331.938 541.514 332.356Z" fill="#4FBBEA"/>
<path d="M534.22 264.253L537.286 264.766L534.397 262.8L534.22 264.253Z" fill="#4FBBEA"/>
<path d="M535.08 255.981L538.397 260.865L537.152 255.461C536.771 255.937 536.059 256.925 535.08 255.981Z" fill="#4FBBEA"/>
<path d="M398.285 405L398.053 403.567C397.194 402.236 396.605 402.286 395.391 402.437L398.285 405Z" fill="#4FBBEA"/>
<path d="M363.913 410.948L364.502 410.898L361.892 406.13L363.913 410.948Z" fill="#4FBBEA"/>
<path d="M338.176 425.693C339.353 425.594 340.342 424.055 341.564 423.949C339.353 425.594 336.004 419.384 338.176 425.693Z" fill="#4FBBEA"/>
</g>
</svg>
