<svg width="640" height="506" viewBox="0 0 640 506" fill="none" xmlns="http://www.w3.org/2000/svg">
<g opacity="0.2">
<path d="M223.004 502.664C221.961 504.488 224.111 504.95 224.294 505.467C225.31 502.023 222.505 502.375 223.004 502.664Z" fill="#C28C00"/>
<path d="M240.989 469.7L241.082 470.947L243.73 465.237L240.989 469.7Z" fill="#C28C00"/>
<path d="M267.819 445.597C262.998 444.742 258.218 454.814 252.582 457.973L251.288 457.965L250.966 462.386C256.433 456.785 263.029 448.339 267.819 445.597Z" fill="#C28C00"/>
<path d="M287.31 439.633C285.524 439.217 289.731 435.808 283.608 442.223C284.049 442.067 284.2 442.072 284.465 441.978C285.061 441.418 285.86 440.728 287.31 439.633Z" fill="#C28C00"/>
<path d="M284.466 441.977C287.073 441.346 281.65 444.545 284.466 441.977V441.977Z" fill="#C28C00"/>
<path d="M297.346 429.679L294.329 434.064C295.641 434.124 299.163 431.306 298.26 432.964C301.707 428.951 300.413 428.943 297.346 429.679Z" fill="#C28C00"/>
<path d="M299.306 424.27L297.637 426.432C298.222 426.4 298.847 426.062 299.306 424.27Z" fill="#C28C00"/>
<path d="M294.152 431.041L297.637 426.432C296.733 426.403 295.933 425.406 295.958 428.424C295.669 427.187 295.501 428.818 294.152 431.041Z" fill="#C28C00"/>
<path d="M291.468 432.574C288.849 433.733 285.769 435.696 288.83 431.295C281.843 438.074 284.481 439.353 291.468 432.574Z" fill="#C28C00"/>
<path d="M266.874 441.1L263.365 442.691L261.673 445.909C262.531 444.266 267.769 441.947 266.874 441.1Z" fill="#C28C00"/>
<path d="M322.304 410.954C322.099 410.095 319.761 410.223 318.85 409.614L316.555 412.813C318.354 412.002 321.408 410.106 322.304 410.954Z" fill="#C28C00"/>
<path d="M318.85 409.614L322.298 404.902C318.416 407.964 318.109 409.062 318.85 409.614Z" fill="#C28C00"/>
<path d="M297.515 420.19L292.282 428.56L298.821 418.971L297.515 420.19Z" fill="#C28C00"/>
<path d="M338.601 397.504L337.276 401.058L339.939 395.11L338.601 397.504Z" fill="#C28C00"/>
<path d="M349.257 388.321C348.349 391.087 353.212 388.551 351.856 390.894C354.654 388.274 356.426 385.144 358.008 382.315C355.997 384.772 353.325 386.765 349.257 388.321Z" fill="#C28C00"/>
<path d="M360.881 377.805C359.894 379.086 358.999 380.625 358.008 382.315C359.127 380.987 360.103 379.536 360.881 377.805Z" fill="#C28C00"/>
<path d="M329.802 399.162C330.397 399.301 331.786 399.857 334.472 398.325L331.506 397.802C330.987 398.161 330.373 398.669 329.802 399.162Z" fill="#C28C00"/>
<path d="M331.399 397.782L331.506 397.802C333.368 396.329 334.66 395.348 335.205 394.922C334.73 395.265 333.596 396.131 331.399 397.782Z" fill="#C28C00"/>
<path d="M329.372 399.489C329.53 399.375 329.644 399.276 329.802 399.162C329.526 399.085 329.376 399.08 329.372 399.489Z" fill="#C28C00"/>
<path d="M309.833 412.339C311.587 409.157 315.974 403.588 309.827 406.287C308.937 409.105 312.465 407.566 309.833 412.339Z" fill="#C28C00"/>
<path d="M325.66 398.823L320.832 402.161C321.28 402.585 322.592 402.644 321.715 404.235L325.66 398.823Z" fill="#C28C00"/>
<path d="M327.431 396.392L325.66 398.823L327.419 397.619L327.431 396.392Z" fill="#C28C00"/>
<path d="M351.82 382.233C353.246 379.808 355.344 378.018 357.741 375.948C354.871 377.661 351.986 379.613 349.439 381.679C349.449 382.548 349.064 384.547 351.82 382.233Z" fill="#C28C00"/>
<path d="M341.756 389.578C341.852 389.428 341.992 389.261 342.132 389.095C341.76 389.168 341.495 389.262 341.756 389.578Z" fill="#C28C00"/>
<path d="M382.123 357.135L381.52 357.115L381.648 357.478L382.123 357.135Z" fill="#C28C00"/>
<path d="M348.748 381.69C346.537 382.88 345.649 384.3 344.949 385.828C346.289 384.423 347.753 383.09 349.439 381.679C349.399 381.285 349.326 381.078 348.748 381.69Z" fill="#C28C00"/>
<path d="M367.034 371.612C365.735 372.013 364.341 372.565 362.896 373.251C364.311 373.041 367.007 372.378 367.034 371.612Z" fill="#C28C00"/>
<path d="M343.168 389.078C343.098 389.161 343.002 389.311 342.932 389.394C343.844 389.305 343.594 389.16 343.168 389.078Z" fill="#C28C00"/>
<path d="M343.168 389.078C343.971 387.979 344.473 386.87 344.993 385.813C343.907 386.954 342.953 388.048 342.176 389.08C342.459 389.038 342.848 389.016 343.168 389.078Z" fill="#C28C00"/>
<path d="M381.697 338.95C382.473 341.003 378.186 346.711 372.353 348.193C368.685 352.983 375.462 356.697 381.519 357.116C381.145 356.2 380.694 355.486 384.649 350.944C382.392 351.161 372.852 356.34 375.752 351.763C381.326 346.182 381.194 348.616 384.813 347.335C380.803 346.95 390.63 338.234 387.219 335.89L382.491 341.055C382.025 340.58 383.506 338.31 381.697 338.95Z" fill="#C28C00"/>
<path d="M372.589 363.593L370.844 365.258C373.213 363.954 375.21 363.422 378.986 362.726C381.609 359.47 381.835 358.285 381.667 357.529L372.154 364.329L372.589 363.593Z" fill="#C28C00"/>
<path d="M362.383 371.802C362.579 368.706 366.545 364.334 362.398 364.404C356.962 368.83 359.579 369.069 356.879 372.527C365.445 365.015 355.044 375.621 362.196 371.694C360.664 373.4 359.155 374.749 357.76 375.999C359.53 374.965 361.23 374.015 362.958 373.287C362.87 373.318 362.764 373.297 362.675 373.329L362.631 373.344L362.613 373.292C362.091 373.361 361.859 373.268 362.345 373.096C362.371 373.029 362.441 372.946 362.529 372.915C362.401 372.553 362.379 372.211 362.383 371.802C365.246 370.207 363.148 371.997 362.466 372.879C362.503 372.982 362.514 373.153 362.55 373.256L362.595 373.241L370.826 365.206C368.766 366.401 366.465 368.321 362.383 371.802Z" fill="#C28C00"/>
<path d="M311.589 398.213C311.96 398.14 312.059 398.279 312.158 398.419C312.567 397.75 312.697 397.414 311.589 398.213Z" fill="#C28C00"/>
<path d="M315.999 396.362C315.539 397.165 315.57 398.376 313.336 399.923C311.14 400.875 312.706 398.982 312.177 398.471C311.281 400.01 308.795 403.509 313.324 401.15L313.74 400.363C317.747 398.072 323.899 396.652 323.482 397.44C321.274 396.533 319.532 396.101 315.999 396.362Z" fill="#C28C00"/>
<path d="M339.035 383.148L345.772 376.224L340.877 377.548L341.729 378.411C337.287 381.438 339.066 381.973 339.035 383.148Z" fill="#C28C00"/>
<path d="M383.588 357.489L383.948 360.331L386.413 354.104L383.588 357.489Z" fill="#C28C00"/>
<path d="M393.297 349.98L394.029 352.049L395.945 349.043L393.297 349.98Z" fill="#C28C00"/>
<path d="M133.493 385.668L131.207 387.349C132.352 386.653 133.055 386.114 133.493 385.668Z" fill="#C28C00"/>
<path d="M151.755 377.635L151.786 376.46C151.167 377.377 150.979 377.968 151.755 377.635Z" fill="#C28C00"/>
<path d="M480.24 207.343C475.767 206.772 470.442 205.338 471.689 207.458L473.668 209.261C476.188 207.962 478.31 207.502 480.24 207.343Z" fill="#C28C00"/>
<path d="M295.941 299.381C296.367 299.463 296.837 299.53 297.289 299.544C297.879 298.404 298.381 297.295 298.893 296.357C297.973 297.265 296.983 298.256 295.941 299.381Z" fill="#C28C00"/>
<path d="M297.128 309.614L291.731 310.359C292.98 310.383 294.741 310.167 297.128 309.614Z" fill="#C28C00"/>
<path d="M18.2209 430.408C16.6471 430.732 15.0808 430.937 13.5038 430.971C18.3782 433.379 17.0325 431.12 18.2209 430.408Z" fill="#C28C00"/>
<path d="M494.818 274.655C498.143 273.246 500.564 271.807 502.533 270.354C498.483 271.961 494.623 272.279 494.818 274.655Z" fill="#C28C00"/>
<path d="M130.742 359.225C129.38 360.289 128.901 361.04 129.173 361.526C130.578 360.447 131.322 359.601 130.742 359.225Z" fill="#C28C00"/>
<path d="M510.516 263.863C509.898 264.081 509.342 264.336 508.743 264.606C506.957 266.577 505.091 268.46 502.533 270.354C505.542 269.173 508.739 267.402 510.516 263.863Z" fill="#C28C00"/>
<path d="M268.477 114.098C268.724 113.953 268.978 113.689 269.242 113.595C269.088 113.3 268.834 113.565 268.477 114.098Z" fill="#C28C00"/>
<path d="M355.58 32.408C355.097 33.5686 354.043 35.222 353.077 36.8442C353.7 36.2166 354.473 34.895 355.58 32.408Z" fill="#C28C00"/>
<path d="M433.856 322.01C433.675 322.481 431.809 323.665 433.856 322.01V322.01Z" fill="#C28C00"/>
<path d="M418.685 321.382C418.98 320.812 419.143 320.289 418.916 319.787C419.047 320.439 418.929 320.946 418.685 321.382Z" fill="#C28C00"/>
<path d="M522.109 234.731C522.197 234.7 522.223 234.633 522.311 234.602C521.462 234.727 521.594 234.68 522.109 234.731Z" fill="#C28C00"/>
<path d="M430.122 323.389C431.049 323.061 432.134 322.619 433.227 322.058C432.635 322.209 431.682 322.604 430.122 323.389Z" fill="#C28C00"/>
<path d="M431.095 324.034C430.311 324.486 429.686 324.824 429.105 325.146C429.049 325.689 429.457 325.72 431.095 324.034Z" fill="#C28C00"/>
<path d="M436.737 319.768C435.559 320.65 434.327 321.377 433.164 322.022C433.65 321.85 433.907 321.875 433.856 322.01C434.444 321.569 435.305 320.915 436.737 319.768Z" fill="#C28C00"/>
<path d="M127.933 280.822C128.109 280.759 128.268 280.645 128.463 280.634C129.834 278.054 129.064 278.966 127.933 280.822Z" fill="#C28C00"/>
<path d="M425.965 254.37C426.079 254.271 426.105 254.203 426.193 254.172C426.06 254.219 425.91 254.214 425.821 254.245L425.965 254.37Z" fill="#C28C00"/>
<path d="M418.046 259.499C420.622 255.27 422.814 254.727 425.803 254.193L420.481 248.975L418.046 259.499Z" fill="#C28C00"/>
<path d="M90.2402 405.743L97.0382 405.026C91.261 411.436 85.5945 412.684 92.3322 412.919C90.2219 405.691 115.099 401.896 112.989 394.668L117.54 394.338C116.393 394.744 116.381 395.272 115.233 395.678C124.28 395.563 118.792 388.191 129.016 384.807C132.683 383.8 135.491 383.738 133.518 385.6L140.4 380.488C142.676 379.624 142.63 381.038 140.353 381.901L151.739 376.185L151.786 376.46C152.98 374.64 156.018 371.295 157.56 369.76C160.924 369.443 156.371 371.17 157.484 371.65L163.229 367.114C166.621 367.719 162.024 371.848 157.47 373.576C166.397 377.752 162.068 369.446 176.741 367.689L171.012 371.287C176.593 373.446 180.7 369.897 188.616 369.25C186.448 368.737 172.283 369.266 178.521 364.44C180.724 364.068 183.434 363.167 186.608 360.065C187.663 362.486 191.085 360.228 195.624 358.04L196.663 361.397C201.263 358.257 200.147 356.789 202.482 353.983C208.165 351.798 210.367 353.813 212.556 355.367C221.663 351.912 204.717 354.124 214.999 348.798C222.917 346.754 227.528 343.085 235.58 337.21C241.221 336.029 235.473 339.576 237.752 339.701L241.281 335.076C242.41 334.618 242.412 335.607 242.382 336.084C245.834 333.349 241.343 332.726 247.072 329.127C247.236 324.82 261.743 328.768 267.562 321.354C269.779 321.443 267.518 323.756 268.557 324.727C277.754 317.457 276.609 318.852 283.59 311.493L291.686 310.375C285.367 310.34 290.963 304.402 295.941 299.381C293.588 299.049 291.538 298.727 290.244 298.719L299.012 292.765C300.369 292.809 299.863 294.326 298.893 296.357C299.445 295.813 299.935 295.232 300.329 294.802C304.189 294.484 303.244 297.146 301.531 300.023C300.138 299.875 298.682 299.692 297.289 299.544C295.781 302.581 294.461 305.726 295.756 307.421C296.227 306.789 297.254 305.902 298.487 305.174C298.088 306.014 297.918 306.656 298.319 306.805C298.782 306.991 299.46 305.82 300.675 304.342L304.347 307.001L304.258 305.345L317.603 302.078C324.944 294.475 330.464 285.654 343.944 277.858C341.563 282.076 344.944 282.51 346.053 285.785C340.869 284.184 335.711 292.063 328.189 294.666C332.136 293.328 331.909 295.213 331.139 296.125L342.915 287.302C343.672 290.003 346.476 287.963 350.3 287.542C345.63 283.606 358.597 279.833 363.268 275.911C364.313 277.462 363.736 279.761 357.127 282.274C365.783 282.879 363.891 272.198 372.268 272.435C370.69 273.168 369.734 273.274 369.49 274.408C372.556 271.285 382.151 268.648 380.618 271.053L379.04 271.786C389.816 267.857 411.173 258.322 411.037 253.305C411.371 253.828 411.749 259.107 411.461 260.257L424.61 237.91C424.376 242.3 434.266 248.638 426.273 254.26C428.979 253.768 432.34 253.161 437.175 249.704C435.245 249.863 430.807 246.02 433.025 244.711C441.081 246.285 438.392 245.141 447.728 245.563C444.824 245.776 445.463 238.74 449.648 237.375C449.341 238.473 452.157 243.065 450.895 244.268L458.949 234.609C456.773 236.601 460.308 239.716 463.197 240.44C461.735 239.677 472.068 237.301 474.584 235.712L469.757 235.965C481.639 232.634 478.242 223.592 489.996 219.899C489.004 221.589 489.108 228.479 495.227 227.245C496.876 223.344 502.305 208.792 512.062 203.244L514.626 204.316L522.047 199.886C518.41 205.888 507.585 219.788 501.371 225.944C506.209 225.863 503.277 227.54 509.783 225.297C512.619 226.156 507.031 228.89 505.152 229.613C510.348 228.298 515.5 226.999 520.689 225.804C518.852 222.438 531.234 218.697 529.786 216.008C524.562 218.787 519.474 221.81 514.287 224.693C512.442 221.445 520.654 211.671 531.881 209.155C535.078 209.77 531.727 216.02 532.325 217.147C533.334 215.509 541.978 211.869 543.235 212.472L539.131 215.612C545.579 215.31 547.715 208.151 556.009 209.699C557.84 209.4 561.543 210.884 563.458 210.963L551.274 188.033C550.622 188.438 550.273 188.852 550.625 189.426C551.422 189.435 552.257 189.548 553.006 189.981L562.782 208.35C558.426 203.896 555.455 194.237 557.147 191.019C557.254 191.039 557.404 191.044 558.015 190.945L598.378 185.163L564.595 203.227C562.586 204.287 552.623 210.373 549.438 210.918C544.324 211.621 549.168 200.187 544.796 200.744C545.302 201.612 544.438 204.363 543.944 205.353C541.442 206.703 542.809 202.145 538.803 206.822C540.367 210.402 529.824 215.412 538.693 211.285C535.134 216.386 533.721 215.198 528.707 220.115C531.75 220.435 529.077 230.986 525.081 235.834C524.777 234.835 523.057 234.745 522.26 234.736C512.867 242.716 506.819 245.554 497.949 252.767C496.637 252.707 491.729 255.258 492.682 252.477C491.742 254.032 491.331 256.098 488.582 258.293C481.474 259.818 494.46 253.012 488.266 253.049C489.105 255.139 482.773 261.105 479.551 265.33C482.584 267.167 489.048 258.768 492.208 254.507C494.794 258.307 490.593 267.768 482.206 276.905C475.201 283.633 477.332 276.884 476.348 278.454C461.625 288.494 468.391 294.424 454.642 300.336C448.325 301.291 451.363 295.559 449.206 294.518C454.879 289.076 459.772 289.15 463.927 285.875L458.019 288.548C459.5 286.277 463.252 282.564 465.944 281.611C460.635 282.325 441.396 298.969 428.922 304.838C427.44 307.108 424.535 310.406 426.767 310.257L430.076 307.398C434.539 307.099 425.091 314.924 430.152 312.668C426.289 317.469 422.307 323.476 414.957 327.125L411.975 325.153C412.639 325.907 417.373 323.708 418.74 321.537C416.721 324.812 406.159 324.998 405.419 330.906L411.288 329.528C407.443 334.381 403.385 341.58 397.043 344.988C401.412 345.828 398.162 343.66 404.378 343.964C398.237 342.469 419.528 333.307 411.036 333.168C417.656 333.911 419.467 329.487 427.089 328.711C426.344 327.869 423.983 328.355 429.248 325.27C429.296 324.845 429.624 324.089 429.824 323.669C430 323.607 430.044 323.591 430.203 323.477C430.07 323.524 429.982 323.555 429.875 323.534C430.023 323.249 430.004 323.198 429.743 323.581C428.312 324.029 427.029 324.192 426.353 323.966C427.506 320.065 435.454 314.459 437.458 311.422C440.692 309.754 436.86 313.38 439.092 313.23L442.054 308.69C443.731 310.483 452.026 306.559 445.812 312.716L452.152 308.319C456.54 306.825 461.919 303.641 464.471 300.468C467.686 298.748 470.463 292.702 468.925 296.214L477.878 287.692L478.282 288.131C488.066 281.118 495.729 269.793 508.912 264.663C511.758 261.619 514.52 258.197 520.131 254.407L522.365 255.247C525.981 251.29 535.479 246.416 535.922 243.174C539.718 243.519 544.625 239.28 549.47 234.306C554.197 229.141 558.988 223.313 562.507 220.206L561.018 217.822C563.831 214.964 566.357 211.859 569.021 208.297L600.35 166.595L556.319 184.327C553.972 185.273 551.493 186.267 548.705 187.37L549.838 189.588C543.94 193.13 532.799 192.24 522.715 195.459C523.128 194.381 525.772 193.853 527.757 193.85C513.938 191.986 503.596 205.425 491.532 205.152C489.133 206.933 487.081 207.309 485.008 207.344C485.272 207.251 485.475 207.121 485.633 207.007C485.35 207.049 484.953 207.189 484.511 207.345C483.173 207.353 481.817 207.309 480.346 207.364C481.651 207.542 482.919 207.618 483.938 207.548C481.863 208.282 478.821 209.649 475.995 211.348L473.793 209.333C473.528 209.427 473.37 209.541 473.105 209.635C469.774 209.765 471.099 211.683 473.391 212.968C471.992 213.928 470.763 214.945 469.861 215.905C465.962 212.744 462.385 220.179 457.486 217.14C456.206 219.979 442.804 224.488 442.877 229.468C442.544 228.945 441.569 228.999 443.184 228.37C439.639 229.158 436.069 230.014 433.543 232.421L430.901 229.863L425.229 236.992C420.061 236.842 417.753 236.494 421.233 232.294C412.053 240.315 413.135 237.196 405.57 244.588L405.191 242.394C402.016 243.808 397.914 248.635 395.335 247.801C386.624 247.042 359.524 262.101 339.931 266.937C345.891 271.29 330.346 268.058 331.545 272.989C329.921 272.05 327.028 272.434 329.498 269.872C320.734 275.417 314.593 273.922 309.768 280.636C308.1 279.712 310.905 277.672 309.633 277.307C309.011 277.935 307.163 279.869 305.873 279.452C304.583 279.035 306.74 277.691 307.966 276.384C298.534 280.885 299.358 285.599 300.355 289.961C294.73 290.205 292.467 291.53 290.086 295.748C287.856 295.198 284.478 295.055 290.221 291.917C286.815 293.238 269.103 299.039 270.116 302.464C268.738 302.079 265.36 304.321 264.624 305.048C257.091 308.178 256.293 308.169 249.12 311.755L251.366 311.368C250.131 316.578 245.637 314.966 239.939 318.088L239.925 317.628C225.223 320.85 234.625 321.598 219.954 324.344L221.697 326.463C222.648 332.239 208.57 328.662 201.666 334.132L205.044 334.276C201.576 337.947 190.207 332.482 185.684 333.733C184.585 333.714 186.829 332.338 188.007 331.456C175.568 333.353 187.916 335.271 179.911 339.733C177.666 338.723 180.047 334.504 174.321 336.705C170.943 336.562 160.48 349.518 151.477 349.618C153.708 350.168 155.956 350.769 152.486 353.452C146.787 356.575 134.379 355.609 130.836 362.16C129.932 362.13 129.513 361.929 129.341 361.583C125.264 364.655 115.415 369.944 113.664 373.416C105.899 366.908 87.3523 390.001 84.1289 382.293L70.4224 388.889L70.4385 387.952C65.8851 389.679 63.0594 391.378 61.0131 393.033C59.7914 393.931 59.8054 394.392 59.3705 395.127C58.9798 395.848 58.5891 396.568 58.2242 397.221C56.842 397.244 57.6783 395.959 57.6643 395.498C53.9064 396.246 52.4208 396.538 50.4596 397.873C48.4358 399.171 46.3702 401.473 40.4595 406.242L42.5681 402.236C40.8824 403.648 38.7434 403.357 36.9617 400.145C36.1187 398.464 35.8581 395.762 36.2875 393.748C36.6544 391.697 37.0903 390.262 36.7759 389.093C37.2797 388.973 38.0666 388.811 38.4596 389.079C38.0827 387.874 39.8427 385.971 41.7017 384.207C43.6672 382.464 45.8309 381 47.4498 379.961C49.1205 378.788 50.0807 378.274 50.8621 376.833C52.6673 374.216 53.693 371.641 53.2084 368.727C55.1319 365.602 57.1362 362.564 59.1404 359.527C48.9154 368.383 58.0153 354.803 52.9753 357.401C56.4812 353.133 64.8227 350.182 60.305 355.099L59.2715 355.406C60.5755 361.057 72.7184 345.41 74.5518 348.486C94.2376 330.579 116.219 316.632 135.205 299.553L130.707 298.351L137.395 292.55C139.672 291.686 141.537 292.889 136.807 297.065C140.631 296.644 143.445 288.314 143.063 287.518C153.058 280.256 142.362 294.518 145.134 291.966L148.698 288.144L147.569 288.602C149.622 284.441 148.842 282.796 154.411 277.624C158.36 274.888 157.701 277.799 159.158 276.585C159.338 276.812 159.857 276.454 161.29 274.608L169.374 266.859L164.296 267.666C166.795 262.94 171.736 260.202 165.89 261.223C174.784 260.113 195.731 232.155 199.844 229.885C203.001 222.947 207.552 217.844 213.34 211.606C211.5 212.722 208.407 211.139 213.444 205.864C216.495 213.225 224.3 197.949 231.62 197.164C225.912 198.717 244.558 180.537 235.879 183.375C240.226 179.101 237.909 185.043 242.048 182.706C249.574 169.449 263.896 159.259 274.81 144.63C274.348 143.745 271.42 145.014 272.97 140.973L282.239 136.995C284.207 133.854 280.642 130.517 286.984 127.808C285.851 127.976 284.178 128.16 285.475 126.071C298.26 113.923 308.939 98.9102 319.582 83.7944C330.268 68.6628 340.749 53.3713 353.752 40.1559C349.755 43.3162 351.388 40.352 353.327 36.9885C351.699 38.8449 351.609 35.5009 350.381 35.1201C354 31.4532 357.458 27.6106 360.978 23.8041C359.694 19.194 368.892 8.83838 366.931 5.39954L365.141 10.1656C365.112 2.08467 353.866 13.1069 350.365 9.10668C350.37 18.2438 335.933 21.3722 334.574 35.3574C332.429 36.8731 334.542 32.4584 332.898 32.8653C332.933 36.7531 331.402 40.1468 326.954 44.9801L326.952 43.9913C316.982 59.7427 310.773 64.7916 297.299 80.327L300.026 80.8757C297.077 84.1893 295.944 84.3571 294.248 85.5976C293.819 92.3853 302.008 75.809 302.126 82.461C294.997 83.6446 282.713 107.316 276.098 106.164C271.771 111.478 279.365 106.696 275.038 112.01L272.799 112.278L273.096 115.084C270.022 118.325 267.217 118.677 266.215 117.809C266.995 117.068 267.895 115.12 268.602 114.171C263.657 117.317 258.621 127.365 256.869 128.45L261.721 124.056C250.773 139.571 234.692 155.738 225.25 172.001L226.923 171.817C219.527 184.038 218.916 179.364 209.793 191.614L209.963 190.972C208.793 194.122 206.563 197.646 203.78 200.727C205.322 196.805 197.243 204.145 199.518 199.208C191.316 212.238 195.927 206.182 192.36 216.874L189.563 217.107C188.542 220.961 188.96 221.861 184.242 227.896C187.269 221.993 179.028 229.158 182.177 222.34C168.81 230.736 169.185 242.885 160.142 243.291C158.679 252.772 171.427 235.747 169.414 239.603C172.893 238.488 168.01 247.143 164.208 250.292C160.641 253.825 153.804 251.063 145.042 259.984C145.936 259.143 145.746 258.745 146.622 257.853C142.446 260.087 141.243 265.81 135.729 268.051C135.465 272.918 130.193 273.037 132.117 277.071L139.853 268.339C135.846 273.715 134.459 282.005 125.062 287.309C125.164 286.051 126.848 282.952 128.094 280.998C125.004 282.091 124.168 285.763 120.99 286.887C119.155 282.821 130.713 276.753 133.75 269.334C130.242 270.226 126.054 280.846 125.835 274.754C125.668 282.845 116.394 282.459 112.705 291.681L111.631 289.208C110.865 290.411 109.479 293.23 107.59 294.771L109.025 289.141C105.53 295.966 97.6493 295.727 93.5019 301.269C103.929 292.283 97.655 301.779 103.169 299.537C92.1935 313.432 91.8785 300.33 77.9743 313.806C79.7601 311.835 86.3006 308.706 83.869 312.36C80.7893 314.323 76.5438 316.64 74.0399 317.002C64.6384 325.8 77.0272 317.866 73.8292 322.723C68.7192 323.017 69.8368 327.861 66.2276 332.397L64.6537 330.335C52.7676 338.847 64.9523 337.214 54.064 344.617L56.0186 337.93L51.489 343.374L50.7515 340.026C46.602 346.966 44.5234 348.109 38.7451 352.831C39.9249 352.937 40.5041 354.013 40.2039 355.691C40.0446 356.504 39.7012 357.498 39.0748 358.535C38.7616 359.053 38.4225 359.639 37.9769 360.204C37.7853 360.505 37.5312 360.769 37.2955 361.085C36.9457 361.5 36.5775 361.863 36.2277 362.278C30.8444 365.871 36.8335 357.815 28.1318 368.169C28.3804 366.626 28.7323 364.814 29.8377 363.025C30.1262 361.876 30.8958 360.963 31.8786 360.091C32.3791 359.682 32.9238 359.256 33.5126 358.815C34.1197 358.425 34.8151 358.005 35.2931 357.952C35.0519 356.99 35.7052 355.187 35.464 354.224C34.9086 354.479 34.3456 354.853 33.7826 355.227L32.9656 355.865L31.7288 357.001C29.9839 358.666 28.2498 360.502 26.7547 362.312C23.6761 365.962 21.2521 369.497 19.4771 371.639C20.9388 370.016 22.7171 368.164 23.8689 367.349L18.8529 376.051L15.4409 383.952C12.5701 386.364 12.922 384.552 13.4397 382.506C12.5183 384.113 11.8251 385.522 11.3892 386.957C11.174 388.314 10.9071 389.805 10.0438 391.857C9.04808 391.569 7.86073 391.581 7.10823 390.858C6.74113 390.522 6.45153 389.984 6.35353 389.146C6.29966 388.292 6.06601 387.21 7.26726 385.272C6.9648 385.961 6.44167 386.728 6.29746 387.303L5.94554 389.116L5.22341 392.689C4.75311 395.009 4.018 397.423 4.09238 399.317C3.4519 399.893 2.44549 401.821 1.73726 403.469C0.984883 405.132 0.468244 406.479 0.105431 405.734C-0.426142 409.706 1.02199 414.781 5.14197 420.25C7.20034 422.84 9.75172 425.139 12.2492 426.584C14.7467 428.028 16.9988 428.92 18.8977 429.936C19.648 429.67 20.8171 429.606 22.8904 429.571C26.8594 430.262 30.1739 431.069 35.777 430.483C38.494 430.163 41.7449 429.245 45.3242 427.571C48.9109 425.779 52.7775 423.654 56.6043 421.136C59.556 421.198 62.8166 421.15 66.4304 420.977C73.0118 417.543 69.144 417.98 66.7736 417.596C65.5755 417.438 64.7121 417.103 65.2869 416.201C65.641 415.378 68.6066 413.513 70.9651 412.039C78.9566 407.116 75.4584 413.65 78.8482 413.266C82.3165 409.594 88.0613 402.672 97.1381 402.08C94.7937 404.016 92.5471 404.403 90.2402 405.743ZM178.389 364.487C176.906 365.768 174.14 368.9 172.234 368.003C173.026 364.347 175.098 365.011 178.389 364.487ZM310.966 298.198C310.015 299.582 307.85 300.057 305.254 300.161C306.759 299.221 308.639 298.498 310.966 298.198ZM455.997 303.466C456.023 303.398 456.093 303.316 456.119 303.248C460.106 301.605 458.668 302.172 455.997 303.466ZM448.246 307.663C447.697 308.498 447.939 308.762 448.472 308.864C448.639 307.932 450.203 306.738 452.175 305.575C451.26 305.375 450.057 305.626 448.246 307.663ZM158.999 275.011L157.314 275.724C159.687 272.323 159.321 273.675 158.999 275.011Z" fill="#C28C00"/>
<path d="M297.053 308.418C296.395 308.243 296.053 307.84 295.756 307.421C295.214 308.137 295.424 308.587 297.053 308.418Z" fill="#C28C00"/>
<path d="M19.1224 430.148L18.8468 430.07C18.582 430.164 18.3791 430.294 18.2209 430.408L19.1224 430.148Z" fill="#C28C00"/>
<path d="M541.383 202.184C542.914 201.177 543.885 200.833 544.672 200.671C544.338 200.149 543.481 200.394 541.383 202.184Z" fill="#C28C00"/>
<path d="M412.543 338.689L416.78 334.803C414.646 336.49 413.539 336.59 412.197 337.007C412.619 337.498 413.949 337.609 412.543 338.689Z" fill="#C28C00"/>
<path d="M364.541 354.042C364.062 354.793 363.154 355.173 362.719 355.909L363.57 356.772C366.32 354.577 367.738 352.27 364.541 354.042Z" fill="#C28C00"/>
<path d="M403.737 334.295C402.222 332.678 399.744 335.359 396.769 338.041C396.972 337.911 397.112 337.745 397.314 337.615C398.008 340.979 400.895 337.629 403.737 334.295Z" fill="#C28C00"/>
<path d="M396.041 338.648C395.128 339.437 394.127 340.257 393.141 340.838C393.422 342.194 394.454 340.199 396.041 338.648Z" fill="#C28C00"/>
<path d="M439.879 315.455C438.051 316.044 440.374 318.539 439.043 318.428C438.836 322.052 447.499 308.219 439.879 315.455Z" fill="#C28C00"/>
<path d="M397.345 329.979L399.905 331.46L400.579 328.311L397.345 329.979Z" fill="#C28C00"/>
<path d="M423.781 313.467L418.241 316.474C418.564 316.826 418.067 317.526 417.33 318.252C420.594 316.108 424.347 314.082 423.781 313.467Z" fill="#C28C00"/>
<path d="M417.349 318.304C415.66 319.425 414.14 320.603 413.469 321.656C414.312 320.95 416.193 319.528 417.349 318.304Z" fill="#C28C00"/>
<path d="M403.944 324.21L405.772 323.622L409.485 321.202L403.944 324.21Z" fill="#C28C00"/>
<path d="M479.061 273.769L484.137 268.888C484.194 267.645 482.403 268.337 480.555 270.272C479.597 271.775 477.73 273.658 479.061 273.769Z" fill="#C28C00"/>
<path d="M458.366 279.985C460.176 279.345 460.579 279.784 461.928 279.947L460.326 276.963L458.366 279.985Z" fill="#C28C00"/>
<path d="M474.034 267.282C474.109 266.091 480.516 258.935 473.718 264.425C473.643 265.616 468.548 270.445 474.034 267.282Z" fill="#C28C00"/>
<path d="M554.659 201.388L553.451 202.746L557.128 206.684L554.659 201.388Z" fill="#C28C00"/>
<path d="M483.844 236.336C491.83 234.908 484.482 232.385 491.909 231.62C493.235 229.754 485.872 232.243 487.315 230.568C483.183 233.485 480.499 233.62 483.844 236.336Z" fill="#C28C00"/>
<path d="M487.253 230.532C487.93 230.059 488.589 229.535 489.318 228.928C488.103 229.707 487.577 230.184 487.253 230.532Z" fill="#C28C00"/>
<path d="M368.026 16.0717C369.259 14.6458 370.43 13.1837 371.583 11.6698L368.444 13.8863L368.026 16.0717Z" fill="#C28C00"/>
<path d="M369.885 4.06329L373.226 4.80236L372.321 0C371.874 1.264 370.97 3.62118 369.885 4.06329Z" fill="#C28C00"/>
<path d="M194.375 365.176L194.391 364.239C193.303 363.692 192.174 364.15 189.853 365.029L194.375 365.176Z" fill="#C28C00"/>
<path d="M128.87 391.553L129.999 391.095L126.697 389.061L128.87 391.553Z" fill="#C28C00"/>
<path d="M76.4273 419.478C78.704 418.614 80.9968 416.813 83.2736 415.95C78.704 418.614 74.2268 416.065 76.4273 419.478Z" fill="#C28C00"/>
<path d="M472.011 438.88C471.308 439.638 474.975 440.742 475.54 441.11C475.405 439.432 471.082 438.526 472.011 438.88Z" fill="#C28C00"/>
<path d="M471.451 420.455L472.631 421.504L470.591 417.424L471.451 420.455Z" fill="#C28C00"/>
<path d="M480.063 407.065C476.969 405.821 476.316 407.167 476.011 408.963C475.758 410.796 475.928 412.974 474.19 413.577L472.702 413.176L476.448 417.024C477.474 413.734 477.095 408.006 480.063 407.065Z" fill="#C28C00"/>
<path d="M496.187 408.858C493.883 407.67 495.52 406.163 494.418 409.834C494.745 409.873 494.894 409.941 495.125 409.949C495.312 409.689 495.574 409.325 496.187 408.858Z" fill="#C28C00"/>
<path d="M495.125 409.949C497.454 410.444 494.337 411.317 495.125 409.949V409.949Z" fill="#C28C00"/>
<path d="M498.599 403.366L498.952 406.387C500.379 406.983 501.844 405.826 502.219 407.006C502.66 404.637 501.27 403.989 498.599 403.366Z" fill="#C28C00"/>
<path d="M496.287 398.733L496.296 400.202C496.891 400.473 497.248 400.415 496.287 398.733Z" fill="#C28C00"/>
<path d="M496.342 403.319L496.302 400.247C495.313 399.81 493.672 398.469 496.147 401.559C494.813 400.121 495.938 401.684 496.342 403.319Z" fill="#C28C00"/>
<path d="M494.71 403.722C492.834 403.751 491.207 404.475 490.788 401.326C488.978 405.158 492.923 407.412 494.71 403.722Z" fill="#C28C00"/>
<path d="M475.099 402.495L472.536 402.819L473.442 405.291C473.015 404.074 476.793 403.598 475.099 402.495Z" fill="#C28C00"/>
<path d="M509.852 395.796C508.947 394.748 506.725 393.777 505.307 392.674L505.35 394.919C506.601 394.991 508.353 394.477 509.852 395.796Z" fill="#C28C00"/>
<path d="M505.307 392.674L505.312 389.32C503.609 390.699 504.148 391.76 505.307 392.674Z" fill="#C28C00"/>
<path d="M491.115 393.738L492.318 400.021L491.564 393.114L491.115 393.738Z" fill="#C28C00"/>
<path d="M516.364 389.547L517.624 392.788L516.007 387.629L516.364 389.547Z" fill="#C28C00"/>
<path d="M520.396 384.987C521.465 387.616 524.452 387.361 524.758 389.241C525.627 387.813 525.154 385.179 524.724 382.814C524.463 384.602 523.202 385.313 520.396 384.987Z" fill="#C28C00"/>
<path d="M524.366 379.196C524.288 380.128 524.454 381.433 524.731 382.859C524.802 381.882 524.762 380.786 524.366 379.196Z" fill="#C28C00"/>
<path d="M508.675 386.844C509.395 387.324 511.207 388.592 512.817 388.331L509.4 386.221C509.198 386.391 508.959 386.614 508.675 386.844Z" fill="#C28C00"/>
<path d="M509.295 386.146L509.398 386.221C510.213 385.583 510.781 385.124 511.027 384.946C510.818 385.072 510.325 385.427 509.295 386.146Z" fill="#C28C00"/>
<path d="M508.517 387.007L508.719 386.837C508.363 386.62 508.221 386.597 508.517 387.007Z" fill="#C28C00"/>
<path d="M498.051 391.234C497.413 388.718 497.794 384.843 493.378 384.779C494.581 387.386 497.113 387.435 498.051 391.234Z" fill="#C28C00"/>
<path d="M504.246 384.439L501.791 385.711C502.54 386.37 503.945 387.107 504.238 388.346L504.246 384.439Z" fill="#C28C00"/>
<path d="M504.274 382.642L504.244 384.439L505.133 383.973L504.274 382.642Z" fill="#C28C00"/>
<path d="M518.624 379.439C518.342 377.418 519.105 376.467 520.026 375.352C518.348 375.763 516.96 376.539 515.884 377.541C516.512 378.588 517.532 380.628 518.624 379.439Z" fill="#C28C00"/>
<path d="M513.823 382.379C513.802 382.244 513.877 382.14 513.862 382.051C513.475 381.929 513.34 381.951 513.823 382.379Z" fill="#C28C00"/>
<path d="M530.683 366.364C530.482 366.258 530.273 366.108 530.065 365.958L530.429 366.497L530.683 366.364Z" fill="#C28C00"/>
<path d="M515.178 377.15C513.837 377.368 513.981 378.539 514.326 379.816C514.694 378.975 515.159 378.164 515.877 377.496C515.573 377.04 515.351 376.801 515.178 377.15Z" fill="#C28C00"/>
<path d="M526.029 375.297C525.077 375.084 524.094 374.968 523.178 374.979C524.412 375.513 526.547 376.224 526.029 375.297Z" fill="#C28C00"/>
<path d="M514.821 382.584C514.836 382.674 514.85 382.764 514.813 382.816C515.654 383.185 515.379 382.908 514.821 382.584Z" fill="#C28C00"/>
<path d="M514.821 382.584C514.876 381.794 514.53 380.793 514.333 379.861C514.032 380.553 513.828 381.275 513.818 382.058C514.115 382.193 514.509 382.359 514.821 382.584Z" fill="#C28C00"/>
<path d="M518.505 344.219C520.593 347.188 520.129 351.674 515.62 350.476C515.232 354.307 524.182 362.227 530.058 365.913C529.117 364.642 528.199 363.504 528.994 360.205C527.002 359.242 521.456 360.418 521.182 356.465C522.82 352.707 524.298 355.592 526.836 355.961C522.84 353.393 526.414 347.989 521.704 343.286L520.586 347.143C519.919 346.424 519.815 344.374 518.505 344.219Z" fill="#C28C00"/>
<path d="M525.949 368.877L525.387 369.933C526.758 369.619 528.357 370.14 531.391 371.302C531.632 368.828 531.101 367.535 530.435 366.541L526.014 369.556L525.949 368.877Z" fill="#C28C00"/>
<path d="M521.724 373.101C519.78 369.603 520.715 366.603 516.74 364.446C514.459 366.791 517.156 368.421 516.833 370.955C520.111 366.839 517.165 373.566 521.398 372.786C521.08 373.941 520.512 374.676 519.98 375.36C520.994 375.103 522.03 374.981 523.132 374.986C523.035 374.956 522.983 374.918 522.886 374.888L522.894 374.933L522.842 374.895C522.344 374.655 522.091 374.512 522.463 374.543C522.456 374.498 522.493 374.446 522.486 374.402C522.227 373.938 521.976 373.52 521.724 373.101C523.364 372.743 522.563 373.746 522.531 374.394C522.649 374.559 522.768 374.724 522.886 374.888L522.938 374.926L525.394 369.978C524.186 370.174 523.251 371.199 521.724 373.101Z" fill="#C28C00"/>
<path d="M489.217 376.954C489.604 377.075 489.775 377.278 489.99 377.473C489.896 376.89 489.755 376.591 489.217 376.954Z" fill="#C28C00"/>
<path d="M492.442 377.028C492.551 377.7 493.454 379.023 492.312 379.622C490.704 379.608 490.955 378.327 489.99 377.473C490.194 378.726 490.153 381.305 493.208 380.901L493.107 380.275C495.574 379.644 500.915 381.166 501.017 381.793C498.076 379.789 495.922 378.393 492.442 377.028Z" fill="#C28C00"/>
<path d="M506.559 373.817L508.513 369.457L504.547 368.492L506.016 369.908C503.621 370.986 505.738 372.434 506.559 373.817Z" fill="#C28C00"/>
<path d="M532.248 367.533L534.438 371.129L532.712 365.022L532.248 367.533Z" fill="#C28C00"/>
<path d="M536.307 363.704L538.388 366.628L538.198 364.04L536.307 363.704Z" fill="#C28C00"/>
<path d="M365.178 403.57L364.205 404.923C364.728 404.47 365.02 404.009 365.178 403.57Z" fill="#C28C00"/>
<path d="M374.534 400.994L374.251 399.248C374.105 400.329 374.132 401.059 374.534 400.994Z" fill="#C28C00"/>
<path d="M523.258 295.756C520.027 293.661 515.804 289.982 517.883 293.458L520.201 296.711C521.01 295.477 522.098 295.393 523.258 295.756Z" fill="#C28C00"/>
<path d="M443.387 356.138C443.714 356.452 443.995 356.774 444.315 357.044C444.313 355.62 444.281 354.293 444.264 353.055C444.007 354.016 443.719 355.073 443.387 356.138Z" fill="#C28C00"/>
<path d="M447.695 371.933L444.38 370.45C445.256 371.042 446.304 371.561 447.695 371.933Z" fill="#C28C00"/>
<path d="M299.178 374.404L297.653 370.378C295.814 372.055 298 372.803 299.178 374.404Z" fill="#C28C00"/>
<path d="M584.723 322.717C587.234 322.355 588.824 321.408 589.953 320.444C586.592 320.943 582.82 320.04 584.723 322.717Z" fill="#C28C00"/>
<path d="M356.726 362.534C356.142 363.456 356.049 364.298 356.328 365.171C356.958 364.242 357.184 363.378 356.726 362.534Z" fill="#C28C00"/>
<path d="M593.891 315.577C593.347 315.619 592.966 315.819 592.43 315.906C591.962 317.544 591.404 319.197 589.954 320.443C592.48 320.171 594.756 318.928 593.891 315.577Z" fill="#C28C00"/>
<path d="M455.585 257.994C455.779 258.054 456.01 258.063 456.211 258.168C455.952 257.704 455.78 257.778 455.585 257.994Z" fill="#C28C00"/>
<path d="M523.738 263.377C523.401 263.846 522.647 264.29 521.945 264.771C522.451 264.781 522.989 264.418 523.738 263.377Z" fill="#C28C00"/>
<path d="M555.587 351.293C555.667 351.786 554.688 352.267 555.587 351.293V351.293Z" fill="#C28C00"/>
<path d="M541.51 342.322C541.475 341.822 541.291 341.255 540.75 340.47C541.253 341.307 541.489 341.912 541.51 342.322Z" fill="#C28C00"/>
<path d="M580.981 290.336L581.056 290.232C580.184 290.235 580.363 290.206 580.981 290.336Z" fill="#C28C00"/>
<path d="M553.01 350.976C553.673 351.099 554.313 351.086 554.984 350.978C554.56 350.909 553.957 350.869 553.01 350.976Z" fill="#C28C00"/>
<path d="M554.286 352.331C553.846 352.448 553.495 352.551 553.19 352.647C553.478 353.289 553.79 353.514 554.286 352.331Z" fill="#C28C00"/>
<path d="M556.857 350.076C556.296 350.581 555.647 350.824 554.939 350.985C555.318 351.061 555.519 351.166 555.541 351.3C555.818 351.026 556.214 350.64 556.857 350.076Z" fill="#C28C00"/>
<path d="M376.762 326.522C376.911 326.589 377.045 326.568 377.194 326.635C377.224 324.563 376.947 325.113 376.762 326.522Z" fill="#C28C00"/>
<path d="M512.261 346.748C512.299 346.697 512.277 346.562 512.314 346.51C512.218 346.48 512.173 346.487 512.076 346.457L512.261 346.748Z" fill="#C28C00"/>
<path d="M509.278 351.276C509.069 346.026 510.328 346.144 512.076 346.457L505.963 336.79L509.278 351.276Z" fill="#C28C00"/>
<path d="M343.259 411.309L347.286 413.78C345.248 420.451 342.036 419.319 346.295 423.222C343.252 411.265 357.738 418.516 354.658 406.61L357.398 408.509C356.81 408.558 356.881 409.282 356.293 409.331C361.883 413.799 356.651 399.946 362.139 400.112C364.17 400.471 365.908 401.843 365.133 403.577L368.144 399.505C369.365 399.398 369.707 401.502 368.493 401.653L374.149 398.897L374.207 399.255C374.506 397.139 375.555 393.707 376.09 392.196C378.125 393.427 375.734 393.678 376.547 395.016L378.946 391.135C381.207 393.754 379.442 397.579 377.005 397.836C383.717 408.647 378.823 394.049 387.584 398.83L384.953 401.278C389.054 407.321 390.705 404.204 395.556 407.23C394.015 405.367 385.215 398.939 387.868 394.924C389.154 395.496 390.621 395.488 391.795 392.541C393.118 396.737 394.689 395.103 396.957 394.092L398.551 399.668C400.593 397.269 399.502 394.506 400.214 391.541C403.232 391.189 405.181 395.284 407.015 398.662C411.828 398.064 401.661 392.823 406.714 390.027C411.172 390.911 413.091 387.751 416.491 382.972C419.779 384 417.155 386.494 418.647 387.768L419.509 382.62C420.135 382.518 420.367 383.951 420.528 384.66C421.938 382.317 418.845 379.098 421.425 376.612C420.176 370.336 430.767 383.273 432.237 375.086C433.721 376.315 432.945 378.601 433.965 380.641C437.617 374.304 437.313 375.824 439.436 368.266L444.38 370.45C440.252 367.352 441.915 361.201 443.395 356.183C441.755 354.565 440.324 353.097 439.492 352.497L443.093 347.824C443.984 348.506 444.222 350.535 444.271 353.1C444.407 352.526 444.551 351.998 444.65 351.476C447.079 352.874 447.363 356.319 447.29 359.823C446.318 358.924 445.339 357.981 444.367 357.082C444.426 360.84 444.67 364.889 446.043 367.974C446.106 367.229 446.533 366.47 447.087 365.921C447.112 366.928 447.206 367.786 447.561 368.279C447.924 368.818 447.967 367.386 448.249 365.732L451.555 371.398L450.918 368.883L458.597 370.393C460.773 362.596 461.188 352.145 467.137 346.953C467.138 352.052 469.617 354.315 471.614 359.55C467.53 354.746 467.068 364.056 462.986 364.351C465.116 364.189 465.686 366.853 465.489 367.896L470.084 360.304C471.616 364.65 472.717 362.955 475.148 364.076C470.511 356.145 477.778 356.528 479.334 352.829C480.656 355.601 481.21 358.727 477.692 359.39C483.846 364.226 478.26 347.628 483.897 351.537C483.136 351.936 482.541 351.665 482.84 353.225C483.643 349.97 488.893 350.083 488.903 352.976L488.142 353.375C493.799 352.319 503.958 346.488 501.537 339.208C502.003 340.098 504.66 347.983 505.004 349.535C504.549 340.236 504.028 331.085 503.298 321.785C505.298 328.168 515.047 341.012 512.344 346.413C513.952 346.704 515.969 346.974 517.532 343.596C516.267 343.158 511.374 335.912 512.249 334.804C518.507 339.991 516.06 337.356 522.65 341.202C520.791 340.493 517.651 330.482 519.754 329.865C520.142 331.41 524.402 338.988 524.158 340.314L524.539 328.812C524.173 331.077 528.157 336.679 530.547 338.68C529.153 337.16 534.859 336.693 535.707 335.131L532.599 334.074C538.786 332.61 531.454 318.546 536.967 316.319C537.323 318.512 541.401 328.648 544.791 328.327C543.606 323.006 538.368 303.181 540.842 297.22L543.157 299.325L544.934 294.442C546.734 302.42 548.584 320.314 548.121 327.924C551.26 328.885 550.359 330.685 553.264 328.789C555.677 330.649 553.647 333.413 552.796 334.103L560.856 331.738C557.54 326.579 563.31 323.391 560.512 319.159L555.945 328.905C552.711 323.687 551.956 311.404 557.296 309.527C559.763 310.872 561.799 319.455 562.902 321.16C562.501 318.973 565.556 314.894 566.736 315.943L566.295 320.012C570.248 320.335 566.616 310.403 572.89 313.427C574.209 313.075 580.393 318.09 578.723 314.87C573.171 310.074 561.641 291.913 560.068 286.747C560.708 287.011 569.138 288.904 572.228 290.976C576.958 294.389 576.541 303.691 580.558 306.669C579.73 305.241 579.613 302.825 579.713 302.028C581.625 302.499 582.025 306.661 584.134 304.388C581.185 298.94 589.538 301.49 582.472 299.237C583.951 296.194 585.766 298.61 588.5 296.512C586.711 295.103 585.385 291.458 584.722 287.936L581.5 285.335C583.674 287.417 585.235 289.967 585.414 291.637C584.085 290.797 581.926 290.504 580.981 290.336C577.796 295.31 573.719 296.201 570.515 300.213C569.05 299.67 566.135 300.373 564.76 297.839C565.143 299.064 566.275 300.947 565.376 302.196C559.454 300.768 566.989 299.131 560.692 296.524C563.303 299.041 561.829 302.68 561.749 305.863C566.166 309.327 566.245 302.744 565.885 299.678C571.771 304.558 575.051 313.168 572.878 320.137C570.58 324.921 567.979 317.946 568.07 319.356C560.596 324.199 570.794 334.719 561.453 335.133C556.166 333.096 555.399 327.524 552.765 325.149C554.545 321.414 559.189 324.014 561.051 322.195L557.14 322.417C557.044 320.411 558.148 317.888 560.106 318.076C555.556 316.333 548.395 326.501 540.595 327.078C540.647 329.092 540.004 331.631 541.914 332.654L543.187 330.885C547.051 332.922 543.219 337.587 546.467 337.52C545.818 341.439 545.901 346.755 541.527 347.235L537.619 343.229C538.649 344.486 541.613 344.372 541.472 342.374C541.676 345.327 532.21 339.88 535.169 346.797L539.624 348.233C539.058 352.093 540.058 358.822 536.354 359.469C540.898 362.867 536.611 358.509 542.391 362.165C535.872 357.067 549.351 357.267 541.662 352.589C548.086 357.105 546.942 352.605 553.289 355.801C552.141 354.38 550.282 353.671 553.146 352.654C552.924 352.139 552.763 351.43 552.691 350.982C552.78 350.968 552.825 350.96 552.922 350.991L552.676 350.893C552.625 350.579 552.573 350.542 552.579 350.862C551.53 350.619 550.542 350.182 549.74 349.486C548.409 345.245 552.248 342.6 552.266 339.886C554.226 339.522 552.935 342.029 554.838 343.007L554.824 338.966C557.448 342.123 562.716 341.498 560.739 346L563.958 343.777C567.196 344.217 570.373 342.874 570.861 340.222C572.926 339.657 571.811 333.635 572.519 337.15C573.652 335.082 574.792 333.059 575.866 330.909L576.578 331.62C579.237 329.627 580.577 326.009 582.489 322.804C584.401 319.599 586.855 316.904 592.333 315.876C593.065 313.322 593.531 310.536 596.775 307.62L600.218 308.761C600.969 305.469 608.396 301.185 605.66 298.183C607.507 298.251 608.991 297.78 610.223 296.891L639.548 275.406L567.376 262.22C562.457 261.319 559.672 268.755 556.109 269.425L558.454 273.409C555.968 274.777 554.357 277.29 552.243 280.666L554.531 284.016C553.597 288.441 546.251 285.59 542.307 288.436C541.836 286.95 543.074 286.657 544.279 287.013C534.781 281.939 536.829 298.79 529.007 295.557C528.545 297.516 527.488 297.504 526.171 297.028C526.298 296.962 526.328 296.865 526.344 296.679C526.21 296.7 526.038 296.774 525.829 296.9C524.989 296.531 524.09 296.08 523.22 295.807C524.148 296.438 525.003 296.896 525.576 297.033C524.702 297.588 523.603 298.732 522.71 300.301L520.11 296.726C520.036 296.83 519.953 296.889 519.878 296.993C517.826 296.224 519.757 299.356 521.966 301.938C521.62 302.913 521.384 304.008 521.395 305.201C517.113 299.464 518.914 309.142 514.089 303.171C514.841 306.954 508.518 308.992 511.125 316.287C510.659 315.398 510.027 315.179 510.736 314.742C508.8 314.689 506.909 314.628 506.459 317.228L503.447 312.526L503.242 320.875C499.735 318.779 498.132 317.386 498.315 312.578C496.174 320.874 495.395 316.635 493.821 324.472L492.539 321.096C491.106 321.88 490.622 327.38 488.502 325.06C482.466 320.388 471.273 331.441 460.104 329.073C465.719 338.223 454.276 326.251 456.911 334.002C455.468 331.893 453.766 331.021 454.402 328.436C450.788 332.469 446.288 327.364 445.602 335.011C444.196 332.85 445.26 331.207 444.282 329.987C444.108 330.613 443.594 332.534 442.616 331.315C441.638 330.095 442.535 329.122 442.875 327.827C438.443 329.924 440.648 337.285 442.787 344.244C439.244 341.924 438.235 342.777 438.148 347.891C436.502 345.953 434.283 344.154 436.919 342.302C435.182 342.63 425.821 342.633 427.542 348.143C426.519 346.931 425.082 348.542 424.886 349.309C421.091 350.247 420.571 349.872 417.146 351.668L418.477 352.233C419.312 359.357 415.957 354.802 413.306 356.565L413.145 355.856C404.792 353.307 410.964 359.104 402.502 355.884L404.207 359.88C406.509 368.971 396.609 356.611 393.827 361.243L395.972 363.147C394.832 366.869 386.145 352.934 383.689 352.505C382.991 351.884 384 351.031 384.472 350.265C377.255 346.796 385.485 355.936 381.728 358.521C380.056 355.852 380.374 350.746 377.402 351.091C375.302 349.181 372.289 363.132 366.699 358.664C368.218 360.668 369.781 362.666 368.364 364.964C365.617 366.696 357.739 358.878 357.238 366.816C356.652 366.314 356.334 365.768 356.15 365.201C354.449 367.728 349.664 370.481 349.491 374.782C343.126 361.02 337.358 385.986 333.502 372.691L326.706 375.494L326.474 374.062C321.728 374.51 321.08 378.153 320.388 381.804C319.094 381.187 319.502 379.742 319.341 379.033C313.043 378.401 311.783 378.836 309.252 384.163L321.661 406.04C321.598 405.086 321.55 403.945 321.481 402.669L324.977 405.548C324.356 402.57 336.906 404.117 338.309 395.802C338.606 396.214 339.094 396.961 339.091 397.789C341.175 388.859 360.586 395.356 351.967 381.272L353.057 374.984C347.384 378.202 349.142 368.957 345.374 368.65C346.687 366.277 353.546 368.104 351.733 370.788L350.811 370.478C355.474 377.716 358.836 367.613 362.467 372.17C371.84 363.756 384.263 359.718 393.697 352.81L388.531 348.411L391.981 346.197C393.766 346.734 396.31 349.4 393.861 350.992C397.353 352.998 395.767 345.491 394.975 344.287C401.125 342.875 397.939 351.8 399.432 350.823L401.011 348.958L400.141 348.686C400.012 345.353 398.384 342.952 401.392 341.131C403.963 340.852 404.793 343.704 405.613 343.387C405.902 343.753 406.267 343.74 406.793 342.736L411.227 340.086L406.435 337.142C406.702 333.699 410.49 334.417 405 331.127C413.231 336.315 422.477 322.317 425.899 323.323C426.291 318.389 428.934 316.582 432.39 314.688C430.962 314.369 427.114 309.894 430.285 308.506C436.237 319.164 438.392 309.257 445.646 314.926C440.364 311.51 452.74 308.306 444.968 303.687C447.869 302.895 447.672 307.337 451.026 308.493C453.961 300.849 464.975 302.828 471.053 297.017C470.322 295.62 467.817 294.326 468.023 291.352L476.026 295.704C476.971 294.173 472.337 287.114 477.836 290.173C476.767 289.244 475.127 287.902 475.786 286.876C493.586 284.859 500.916 263.866 522.578 268.39C519.106 266.794 520.279 265.823 521.683 264.86C520.336 264.757 519.746 261.407 518.494 259.634L527.469 261.485C525.645 255.625 533.755 257.524 531.602 252.177L530.179 254.154C529.486 246.777 519.321 242.96 515.442 235.181C516.288 243.498 502.134 229.531 502.807 241.873C500.867 240.947 502.327 238.918 500.769 237.517C501.409 241.457 500.367 242.958 496.807 243.077L496.647 242.092C489.499 247.25 484.492 246.087 474.694 249.056L477.526 252.364C475.423 252.981 474.355 252.052 472.919 251.687C474.254 258.5 478.151 248.862 480.028 256.185C473.089 250.19 467.284 263.905 460.433 256.471C457.633 258.166 463.881 260.184 461.126 261.872L458.951 260.066L460.092 263.418C457.996 264.08 455.295 261.854 453.977 259.954C454.565 259.905 454.861 258.616 455.242 258.141C451.196 256.96 449.197 263.303 447.85 262.925L451.382 262.627C445.247 269.504 434.19 272.632 430.161 282.015L431.839 283.305C428.534 290.09 426.241 284.444 421.304 289.932L421.261 289.387C421.251 291.87 420.238 293.826 418.507 294.751C418.615 291.746 413.077 292.967 413.508 289.405C410.031 296.816 412.47 294.031 412.985 302.86L410.164 300.745C410.619 304.117 411.44 305.5 409.098 308.316C409.77 304.255 404.239 305.521 404.661 300.49C394.233 299.013 400.053 313.092 390.859 306.498C393.644 316.017 399.207 306.751 398.831 309.523C401.923 311.043 400.656 316.808 398.233 317.431C396.195 318.727 387.858 310.34 383.113 314.188C383.613 313.877 383.236 313.249 383.736 312.939C380.484 312.41 382.151 318.158 377.569 316.788C379.782 322.218 374.493 318.758 378.535 324.718L381.898 319.991C380.522 323.385 383.37 331.882 376.839 331.793C376.248 330.419 376.31 327.974 376.48 326.476C373.973 325.734 375.068 329.37 372.472 328.643C368.385 322.69 376.828 323.249 376.154 316.834C372.994 315.464 374.297 324.901 370.878 317.691C375.048 326.984 365.356 320.425 366.819 328.871L364.361 325.319C364.282 326.251 364.496 328.697 363.458 329.371L361.656 323.645C362.005 329.469 354.034 324.469 353.132 328.52C358.303 324.189 357.58 331.612 361.726 332.271C358.939 341.959 350.965 326.483 345.022 333.972C345.593 332.685 350.321 332.974 350.035 335.731C348.134 336.178 345.28 336.411 342.998 335.357C338.839 339.984 346.532 338.184 346.212 341.865C341.278 339.175 345.274 345.418 344.294 348.425L341.455 345.073C334.311 347.427 345.891 353.174 338.929 354.672L337.026 348.319L335.545 351.638L332.837 347.391C332.525 352.541 331.058 352.55 327.493 353.772C330.123 355.55 332.324 360.063 330.096 362.171C326.792 361.605 328.265 358.241 325.369 361.606C324.285 358.887 322.876 355.578 326.98 357.393C326.188 356.189 325.896 354.674 325.149 353.463C321.443 352.687 320.354 356.723 319.196 357.784C319.748 357.51 320.479 357.208 321.156 357.42L320.421 366.177C318.584 365.602 318.292 364.087 318.052 362.61C317.422 363.815 318.083 365.913 316.908 367.436C314.909 364.453 312.365 361.787 313.294 358.742L311.352 365.719C310.015 364.834 306.173 364.63 305.888 363.16C301.968 363.889 304.415 373.875 299.25 374.852C299.545 375.539 299.669 376.3 299.285 377.327C298.367 377.89 297.33 378.288 296.286 378.641L218.449 405.75L319.834 419.661C323.071 420.1 326.346 420.763 328.821 416.226L333.268 421.569C336.54 419.108 327.412 414.893 332.85 410.794C336.594 407.567 336.004 415.52 338.002 416.803C339.275 413.059 341.152 405.679 346.588 409.482C345.651 411.059 344.365 410.487 343.259 411.309ZM387.816 394.887C387.223 396.04 386.279 399.271 384.903 397.014C384.395 391.904 385.876 393.961 387.816 394.887ZM452.861 361.63C452.705 363.217 451.463 362.913 449.762 361.765C450.487 361.142 451.463 360.938 452.861 361.63ZM564.882 339.86C564.867 339.77 564.86 339.725 564.846 339.636C567.646 339.641 566.581 339.584 564.882 339.86ZM560.17 341.084C560.204 341.86 560.553 342.309 561.073 342.684C560.667 341.601 561.385 340.933 562.511 340.52C561.568 339.8 560.646 339.491 560.17 341.084ZM405.255 341.745L403.901 341.321C404.61 339.185 404.903 340.424 405.255 341.745Z" fill="#C28C00"/>
<path d="M447.211 370.082C446.7 369.476 446.353 368.751 446.043 367.974C445.95 368.816 446.215 369.6 447.211 370.082Z" fill="#C28C00"/>
<path d="M299.481 375.137C299.526 375.129 299.563 375.077 299.608 375.07C299.475 374.815 299.349 374.606 299.178 374.404L299.481 375.137Z" fill="#C28C00"/>
<path d="M583.108 307.679C581.998 307.629 581.151 307.216 580.431 306.735C580.993 307.655 581.817 308.21 583.108 307.679Z" fill="#C28C00"/>
<path d="M546.643 360.372L548.031 357.896C547.171 358.816 546.22 358.328 545.319 358.152C545.994 358.916 547.242 359.816 546.643 360.372Z" fill="#C28C00"/>
<path d="M511.959 353.368C512.024 354.047 511.361 353.925 511.381 354.611L512.768 356.086C514.001 354.92 513.86 352.922 511.959 353.368Z" fill="#C28C00"/>
<path d="M535.96 350.253C533.581 347.469 532.984 349.449 531.928 351.137C532.01 351.078 532.085 350.974 532.174 350.959C534.949 355.333 535.451 352.77 535.96 350.253Z" fill="#C28C00"/>
<path d="M531.709 351.494C531.372 351.962 530.938 352.4 530.423 352.621C531.482 354.333 531.184 352.498 531.709 351.494Z" fill="#C28C00"/>
<path d="M557.133 346.402C555.816 346.202 559.455 350.527 558.163 349.634C560.118 354.049 559.804 341.373 557.133 346.402Z" fill="#C28C00"/>
<path d="M527.385 341.537L530.701 344.72L529.3 341.18L527.385 341.537Z" fill="#C28C00"/>
<path d="M541.375 335.268L538.199 336.059C538.703 336.621 538.663 337.224 538.482 337.805C540.013 336.775 542.227 336.278 541.375 335.268Z" fill="#C28C00"/>
<path d="M538.43 337.767C537.594 338.271 536.914 338.887 536.925 339.804C537.328 339.462 538.165 338.683 538.43 337.767Z" fill="#C28C00"/>
<path d="M529.871 337.917L531.144 338.124L533.092 337.118L529.871 337.917Z" fill="#C28C00"/>
<path d="M567.691 315.328L569.216 312.002C568.357 310.671 567.024 310.658 566.587 311.923C566.805 313.266 566.286 314.591 567.691 315.328Z" fill="#C28C00"/>
<path d="M552.093 312.531C553.358 312.693 554.033 313.457 555.363 314.297L551.806 309.913L552.093 312.531Z" fill="#C28C00"/>
<path d="M557.982 305.556C557.161 304.173 557.94 299.36 555.553 302.183C556.457 303.506 555.111 306.527 557.982 305.556Z" fill="#C28C00"/>
<path d="M570.482 297.462L571.177 296.936L566.158 289.204L570.482 297.462Z" fill="#C28C00"/>
<path d="M542.372 338.873C547.026 338.991 540.606 333.371 545.139 334.151C544.984 331.787 541.41 333.516 541.434 331.399C540.296 334.57 538.549 333.98 542.372 338.873Z" fill="#C28C00"/>
<path d="M541.39 331.406C541.585 330.915 541.722 330.341 541.829 329.589C541.505 330.422 541.414 330.989 541.39 331.406Z" fill="#C28C00"/>
<path d="M534.096 263.304L537.162 263.817L534.273 261.851L534.096 263.304Z" fill="#C28C00"/>
<path d="M534.956 255.032L538.273 259.915L537.028 254.512C536.647 254.987 535.935 255.976 534.956 255.032Z" fill="#C28C00"/>
<path d="M398.161 404.05L397.929 402.618C397.07 401.287 396.482 401.336 395.267 401.488L398.161 404.05Z" fill="#C28C00"/>
<path d="M363.79 409.998L364.378 409.949L361.768 405.18L363.79 409.998Z" fill="#C28C00"/>
<path d="M338.052 424.744C339.229 424.645 340.218 423.106 341.44 422.999C339.229 424.645 335.88 418.434 338.052 424.744Z" fill="#C28C00"/>
</g>
</svg>
